<svg width="291" height="303" viewBox="0 0 291 303" fill="none" xmlns="http://www.w3.org/2000/svg">
<path d="M251.077 168.722C198.111 138.139 112.512 138.139 59.8587 168.722C7.20494 199.304 7.51115 248.883 60.4836 279.466C113.456 310.048 199.048 310.048 251.702 279.466C304.356 248.883 304.049 199.298 251.077 168.722Z" fill="white"/>
<path d="M52.7539 252.264L116.774 215.333C117.747 214.771 118.851 214.476 119.974 214.476C121.097 214.476 122.201 214.771 123.173 215.333L129.535 219.014C129.858 219.202 130.126 219.471 130.312 219.795C130.498 220.119 130.596 220.486 130.596 220.86C130.596 221.234 130.498 221.601 130.312 221.925C130.126 222.249 129.858 222.519 129.535 222.707L65.5267 259.694C64.5486 260.263 63.4371 260.563 62.3054 260.563C61.1737 260.563 60.0622 260.263 59.0841 259.694L52.7351 255.945C52.4145 255.756 52.1491 255.486 51.9653 255.162C51.7816 254.838 51.6859 254.472 51.6878 254.099C51.6897 253.727 51.7891 253.362 51.9761 253.04C52.1632 252.718 52.4313 252.45 52.7539 252.264Z" fill="#E6E6E6"/>
<path d="M263.081 252.264L199.061 215.333C198.088 214.771 196.985 214.476 195.861 214.476C194.738 214.476 193.635 214.771 192.662 215.333L186.3 219.014C185.977 219.202 185.71 219.471 185.523 219.795C185.337 220.119 185.239 220.486 185.239 220.86C185.239 221.234 185.337 221.601 185.523 221.925C185.71 222.249 185.977 222.519 186.3 222.707L250.333 259.694C251.31 260.264 252.421 260.563 253.552 260.563C254.682 260.563 255.793 260.264 256.77 259.694L263.119 255.945C263.439 255.754 263.703 255.483 263.885 255.158C264.067 254.833 264.161 254.466 264.157 254.094C264.153 253.722 264.052 253.357 263.863 253.036C263.674 252.715 263.405 252.449 263.081 252.264Z" fill="#E6E6E6"/>
<path d="M275.161 235.267C271.155 232.955 264.681 232.955 260.707 235.267C256.733 237.579 256.745 241.329 260.751 243.641C264.756 245.953 271.23 245.953 275.204 243.641C279.179 241.329 279.166 237.579 275.161 235.267Z" fill="#E6E6E6"/>
<path d="M59.9902 254.164C55.9846 251.852 49.5107 251.852 45.5363 254.164C41.562 256.476 41.5745 260.226 45.5801 262.538C49.5856 264.85 56.0596 264.85 60.0339 262.538C64.0082 260.226 63.9645 256.476 59.9902 254.164Z" fill="#E6E6E6"/>
<path d="M114.949 29.6949L119.043 27.3578L119.299 116.755L119.286 116.762L86.3168 135.59L86.3043 130.903L86.0605 46.1859L114.949 29.6949Z" fill="#E5E5E5"/>
<path opacity="0.1" d="M115.193 114.412L114.95 29.6949L119.043 27.3578L119.299 116.755L119.286 116.762L115.181 114.418L115.193 114.412Z" fill="black"/>
<path opacity="0.2" d="M86.3042 130.903L115.181 114.418L119.286 116.762L86.3167 135.59L86.3042 130.903Z" fill="black"/>
<path d="M69.8382 55.4468L73.9312 53.1159L74.1874 142.514L74.1749 142.52L41.2054 161.342L41.1929 156.661L40.9492 71.9441L69.8382 55.4468Z" fill="#E5E5E5"/>
<path opacity="0.1" d="M70.082 140.17L69.8383 55.4468L73.9313 53.1159L74.1875 142.514L74.175 142.52L70.0695 140.176L70.082 140.17Z" fill="black"/>
<path opacity="0.2" d="M41.1929 156.661L70.0693 140.176L74.1749 142.52L41.2054 161.342L41.1929 156.661Z" fill="black"/>
<path d="M198.092 68.0199C197.873 67.7824 197.655 67.545 197.436 67.295L197.298 67.1325C196.942 66.7201 196.599 66.3014 196.261 65.8827C196.224 65.839 196.192 65.789 196.155 65.739C195.886 65.3953 195.624 65.0391 195.374 64.6829L195.261 64.5267C195.02 64.1768 194.782 63.8206 194.549 63.4581L194.38 63.2019C194.193 62.9103 194.012 62.6104 193.837 62.3021L193.718 62.1146C193.518 61.773 193.324 61.4231 193.137 61.0648L192.999 60.8023C192.849 60.5211 192.712 60.2399 192.574 59.9587L192.431 59.6775C192.262 59.3151 192.093 58.9589 191.937 58.5964C191.937 58.5402 191.893 58.4902 191.874 58.4402C191.731 58.1153 191.599 57.8153 191.468 57.4591L191.356 57.1654C191.212 56.7717 191.068 56.3843 190.937 55.9906C190.937 55.9906 190.937 55.9281 190.937 55.8969C190.806 55.4907 190.681 55.0845 190.568 54.6846L190.5 54.4471C190.375 53.9785 190.256 53.5098 190.156 53.0411C190.156 52.9411 190.112 52.8349 190.087 52.7349C190.062 52.6349 190.018 52.3662 189.987 52.185C189.956 52.0038 189.943 51.9475 189.925 51.8351V51.7976C189.893 51.6101 189.862 51.4226 189.837 51.2289C189.812 51.0352 189.837 51.004 189.787 50.8915C189.737 50.4915 189.7 50.0854 189.668 49.6854C189.668 49.5979 189.668 49.5167 189.668 49.4292C189.668 49.023 189.625 48.6106 189.631 48.1794C189.631 47.9003 189.631 47.6253 189.631 47.3546C189.631 47.2546 189.631 47.1608 189.631 47.0546L189.668 46.5672L189.706 46.2672C189.706 46.111 189.706 45.961 189.762 45.8111C189.818 45.6611 189.793 45.6049 189.812 45.4986C189.831 45.3924 189.856 45.2237 189.887 45.0862C189.918 44.9487 189.931 44.88 189.956 44.7737C189.981 44.6675 190.012 44.5175 190.043 44.3988C190.075 44.2801 190.1 44.1926 190.131 44.0926C190.162 43.9926 190.2 43.8551 190.237 43.7427C190.275 43.6302 190.306 43.5427 190.337 43.449C190.368 43.3552 190.412 43.224 190.456 43.1178L190.575 42.8366C190.618 42.7366 190.662 42.6303 190.712 42.5304C190.762 42.4304 190.8 42.3554 190.843 42.2679C190.887 42.1804 190.937 42.0679 190.993 41.9742C191.05 41.8805 191.087 41.8117 191.137 41.7305C191.187 41.6493 191.243 41.5493 191.306 41.4555L191.462 41.2306C191.524 41.1431 191.581 41.0556 191.643 40.9744C191.706 40.8931 191.762 40.8369 191.818 40.7619C191.874 40.6869 191.943 40.6057 192.012 40.5307C192.081 40.4557 192.137 40.3995 192.199 40.337L192.399 40.1245L192.605 39.9433C192.674 39.8808 192.743 39.8121 192.818 39.7558C192.893 39.6996 192.962 39.6433 193.037 39.5871L193.262 39.4184L193.487 39.2747C194.178 38.8388 194.942 38.5298 195.742 38.3623C194.224 40.0683 193.33 42.6678 193.324 46.0048C193.324 46.411 193.324 46.8172 193.362 47.2546V47.5108C193.362 47.9107 193.424 48.3107 193.48 48.7168C193.48 48.8293 193.512 48.9418 193.524 49.0605C193.537 49.1793 193.58 49.4355 193.612 49.6229C193.643 49.8104 193.655 49.8791 193.68 50.0104C193.705 50.1416 193.749 50.3728 193.787 50.5603C193.824 50.7477 193.83 50.7665 193.849 50.8665C193.955 51.3352 194.068 51.8038 194.199 52.2725C194.199 52.3537 194.243 52.4287 194.261 52.51C194.374 52.9099 194.499 53.3161 194.63 53.7223C194.643 53.7525 194.654 53.7839 194.661 53.816C194.793 54.2097 194.936 54.5971 195.08 54.9845L195.199 55.2845C195.324 55.6094 195.461 55.9406 195.599 56.2656C195.599 56.3156 195.642 56.3656 195.661 56.4218C195.824 56.7842 195.986 57.1404 196.161 57.5029C196.205 57.5966 196.249 57.6903 196.299 57.7841C196.436 58.0653 196.58 58.3527 196.724 58.6339C196.774 58.7152 196.817 58.8027 196.861 58.8901C197.049 59.2401 197.242 59.59 197.448 59.94L197.561 60.1337C197.736 60.4336 197.923 60.7586 198.111 61.0273C198.161 61.1148 198.217 61.2023 198.273 61.2835C198.507 61.6459 198.744 62.0021 198.986 62.3521L199.098 62.5083C199.354 62.8645 199.611 63.2207 199.879 63.5706L199.986 63.7081C200.323 64.1393 200.667 64.558 201.023 64.9579C201.073 65.0141 201.117 65.0704 201.167 65.1204C201.379 65.3703 201.587 65.614 201.791 65.8515L201.829 65.8952C202.066 66.1452 202.31 66.3889 202.548 66.6326L202.704 66.7826C203.023 67.0888 203.329 67.4075 203.666 67.6762L203.754 67.7574C204.091 68.0574 204.435 68.3386 204.785 68.6073C204.849 68.6628 204.915 68.7149 204.985 68.7635C205.322 69.026 205.666 69.2822 206.016 69.5196L206.203 69.6446C206.572 69.8883 206.941 70.1195 207.316 70.3382C207.69 70.557 207.94 70.6694 208.209 70.8194L208.465 70.9444L209.134 71.2506L209.371 71.3506C209.578 71.4381 209.79 71.513 209.996 71.588L210.153 71.6443C210.409 71.7318 210.665 71.813 210.915 71.8817L211.352 71.988L211.559 72.038C211.771 72.0817 211.984 72.1254 212.183 72.1567C212.502 72.2067 212.808 72.2317 213.121 72.2504H213.308C213.59 72.2504 213.858 72.2504 214.127 72.2504H214.264C214.481 72.2504 214.689 72.2254 214.889 72.1754H215.083L215.289 72.1254C214.788 72.6947 214.197 73.1781 213.54 73.5565L213.465 73.5939H213.421C213.252 73.6881 213.079 73.7736 212.902 73.8502L212.721 73.9251C212.535 74.0021 212.345 74.0688 212.152 74.1251H212.052C211.826 74.1918 211.597 74.246 211.365 74.2876H211.184C210.977 74.2876 210.771 74.3438 210.559 74.3626H210.396C210.134 74.3626 209.865 74.3626 209.59 74.3626H209.421H208.978L208.465 74.3001L208.14 74.2376L207.834 74.1814L207.64 74.1314H207.584L207.191 74.0314C206.941 73.9626 206.691 73.8876 206.441 73.8002L206.284 73.7439C206.078 73.6689 205.872 73.5939 205.66 73.5065L205.428 73.4065C205.203 73.3127 204.978 73.2065 204.753 73.1003L204.61 73.0253L204.497 72.9753C204.204 72.8253 203.91 72.6691 203.61 72.4941C203.31 72.3192 202.866 72.0442 202.498 71.8005L202.448 71.763L202.31 71.6755C201.96 71.4381 201.616 71.1819 201.273 70.9194C201.228 70.8895 201.187 70.8561 201.148 70.8194L201.079 70.7632C200.729 70.4945 200.385 70.2133 200.048 69.9133L199.992 69.8633C199.992 69.8633 199.992 69.8633 199.961 69.8633C199.636 69.5759 199.336 69.2759 198.998 68.9697L198.842 68.8197C198.598 68.5823 198.361 68.3323 198.123 68.0824L198.092 68.0199Z" fill="#EBEBEB"/>
<path d="M215.096 60.3336V61.2022L217.539 62.6145V61.7459L215.096 60.3336Z" fill="white"/>
<path d="M195.318 42.0617L194.943 42.5929L197.055 45.2175L197.436 44.6863L195.318 42.0617Z" fill="white"/>
<path d="M219.607 63.3769C219.607 72.3191 213.252 75.9186 205.472 71.4256C197.692 66.9325 191.406 56.0469 191.431 47.1108C191.456 38.1748 197.786 34.5629 205.591 39.0559C213.396 43.5489 219.632 54.4346 219.607 63.3769ZM199.154 54.7408C199.211 54.9292 199.333 55.0911 199.498 55.197C199.544 55.2255 199.595 55.2446 199.648 55.2532L205.635 55.7219C205.676 55.734 205.721 55.7313 205.761 55.7142C205.801 55.6971 205.833 55.6667 205.853 55.6282L209.771 48.998C209.808 48.8799 209.812 48.7539 209.783 48.6338C209.753 48.5137 209.691 48.404 209.603 48.3169C209.557 48.2607 209.502 48.2122 209.44 48.1732C209.303 48.0982 209.165 48.1044 209.103 48.2232L205.247 54.7533L199.342 54.2847C199.154 54.2847 199.061 54.4784 199.142 54.7408H199.154ZM210.646 48.8855L211.896 47.1546L211.271 46.3485L210.021 48.0732L210.646 48.8855ZM211.159 70.7007L211.784 70.6444L210.59 67.4887L209.965 67.5449L211.184 70.6694L211.159 70.7007ZM195.274 56.6218L197.399 56.4405L197.03 55.472L194.905 55.6532L195.274 56.6218ZM215.727 68.426L216.102 67.8949L213.983 65.2641L213.608 65.7952L215.727 68.426ZM195.318 42.0617L194.943 42.5928L197.055 45.2174L197.436 44.6862L195.318 42.0617ZM214.014 54.9908L216.139 54.8096L215.764 53.8472L213.64 54.0284L214.014 54.9908ZM199.867 39.7808L199.242 39.837L200.46 42.9615L201.085 42.9053L199.836 39.7808H199.867ZM199.767 64.1518L201.017 62.427L200.392 61.6209L199.142 63.3456L199.767 64.1518ZM195.911 50.1666V49.2792L193.462 47.867V48.7418L195.905 50.1541L195.911 50.1666ZM217.501 61.7522L215.058 60.3399V61.2085L217.501 62.6208V61.7459V61.7522ZM205.072 68.8385L205.822 69.2697V66.4576L205.072 66.0264V68.8385ZM205.897 41.643L205.147 41.2118V44.0239L205.897 44.4613V41.643Z" fill="#C4C4C4"/>
<path d="M205.185 41.2118L205.178 44.0239L205.928 44.455L205.934 41.643L205.185 41.2118Z" fill="white"/>
<path d="M211.24 46.3484L210.009 48.0732L210.659 48.8855L211.89 47.1546L211.24 46.3484Z" fill="white"/>
<path d="M215.764 53.8659L213.639 54.0471L214.014 55.0094L216.139 54.8282L215.764 53.8659Z" fill="white"/>
<path d="M213.983 65.2641L213.608 65.7953L215.727 68.4261L216.102 67.8949L213.983 65.2641Z" fill="white"/>
<path d="M210.609 67.5012L209.953 67.5575L211.171 70.7007L211.821 70.6445L210.609 67.5012Z" fill="white"/>
<path d="M205.116 66.0264L205.11 68.8384L205.86 69.2696L205.866 66.4575L205.116 66.0264Z" fill="white"/>
<path d="M200.385 61.6022L199.154 63.3269L199.798 64.1331L201.029 62.4084L200.385 61.6022Z" fill="white"/>
<path d="M197.03 55.472L194.905 55.6532L195.28 56.6218L197.398 56.4406L197.03 55.472Z" fill="white"/>
<path d="M193.499 47.8669V48.7355L195.942 50.1478L195.949 49.2792L193.499 47.8669Z" fill="white"/>
<path d="M199.867 39.7809L199.217 39.8371L200.435 42.9803L201.085 42.9241L199.867 39.7809Z" fill="white"/>
<path d="M205.522 54.8095C205.475 54.7845 205.425 54.7676 205.372 54.7595H205.247L199.342 54.2846C199.154 54.2846 199.061 54.4783 199.142 54.7408C199.198 54.9292 199.32 55.0911 199.486 55.197C199.531 55.2255 199.582 55.2446 199.636 55.2532L205.622 55.7219H205.653C205.847 55.7219 205.935 55.5344 205.853 55.2657C205.797 55.081 205.68 54.9205 205.522 54.8095Z" fill="white"/>
<path d="M209.44 48.173C209.303 48.098 209.165 48.1043 209.103 48.223L205.247 54.7532H205.372C205.425 54.7612 205.475 54.7781 205.522 54.8032C205.685 54.9121 205.806 55.0729 205.866 55.2594C205.947 55.5281 205.866 55.7343 205.666 55.7155H205.635C205.676 55.7276 205.721 55.7249 205.761 55.7078C205.801 55.6907 205.833 55.6603 205.853 55.6218L209.771 48.9916C209.808 48.8736 209.812 48.7476 209.783 48.6274C209.753 48.5073 209.691 48.3977 209.603 48.3105C209.556 48.2565 209.501 48.2101 209.44 48.173Z" fill="white"/>
<path d="M215.164 74.3938C215.239 74.3375 215.32 74.2875 215.395 74.2251L215.627 74.0188C215.702 73.9501 215.777 73.8939 215.845 73.8251L216.064 73.5939L216.27 73.3815L216.477 73.1315L216.664 72.9003C216.733 72.8128 216.789 72.7253 216.858 72.6316C216.926 72.5378 216.976 72.4691 217.033 72.3816C217.089 72.2941 217.151 72.1879 217.208 72.0879L217.37 71.8192C217.426 71.7192 217.476 71.613 217.526 71.5068C217.576 71.4005 217.626 71.3193 217.67 71.2256C217.714 71.1318 217.77 71.0006 217.82 70.8881C217.87 70.7756 217.908 70.6881 217.945 70.5882L218.076 70.2257L218.189 69.9133C218.226 69.7883 218.264 69.6633 218.295 69.5321C218.326 69.4009 218.364 69.3134 218.395 69.2009C218.426 69.0884 218.457 68.9384 218.482 68.801C218.507 68.6635 218.539 68.576 218.564 68.4573C218.589 68.3385 218.614 68.1698 218.639 68.0198C218.664 67.8699 218.682 67.7949 218.701 67.6762C218.72 67.5574 218.739 67.3387 218.757 67.1762C218.776 67.0138 218.789 66.9638 218.801 66.8575L218.839 66.2826C218.839 66.1889 218.839 66.1014 218.839 66.0077C218.839 65.714 218.839 65.4203 218.839 65.1203C218.839 64.6829 218.839 64.2392 218.795 63.7955C218.798 63.7686 218.798 63.7413 218.795 63.7143C218.764 63.2144 218.72 62.7207 218.657 62.2146C218.657 62.1583 218.657 62.1021 218.657 62.0458C218.62 61.7771 218.582 61.5084 218.539 61.2335L218.464 60.821L218.351 60.1961C218.351 60.1649 218.351 60.1337 218.351 60.1024C218.116 58.9851 217.82 57.8816 217.464 56.7967C216.97 55.3233 216.377 53.8849 215.689 52.4912L215.645 52.3974C215.258 51.6101 214.846 50.8289 214.396 50.0666C214.358 49.9978 214.314 49.9291 214.271 49.8604C214.071 49.5187 213.862 49.1813 213.646 48.848C213.596 48.773 213.552 48.6918 213.496 48.6106C212.921 47.717 212.315 46.8546 211.665 46.0235C211.04 45.2111 210.365 44.4238 209.671 43.6864C209.409 43.4052 209.14 43.1302 208.865 42.8553L208.734 42.7303C208.384 42.3866 208.022 42.0492 207.659 41.7242L207.615 41.6867C207.234 41.3493 206.847 41.0618 206.453 40.7181L206.241 40.5557C205.872 40.2682 205.497 39.9995 205.116 39.737H205.072C204.835 39.5746 204.591 39.4183 204.347 39.2684C204.104 39.1184 203.929 39.0059 203.722 38.8872C203.397 38.6997 203.097 38.5247 202.76 38.3685H202.729C201.807 37.899 200.843 37.5202 199.848 37.2375L199.579 37.1687L199.161 37.0687L198.873 37.0187L198.486 36.9438H198.448H198.167L197.667 36.8938H197.467C197.105 36.8719 196.742 36.8719 196.38 36.8938H196.23C195.999 36.8938 195.774 36.9375 195.555 36.975C195.237 37.0268 194.922 37.0957 194.611 37.1812H194.561H194.499C194.293 37.2437 194.086 37.3187 193.874 37.3937L193.78 37.4312C193.5 37.5481 193.226 37.6816 192.962 37.8311L196.711 35.6627L196.792 35.6127L196.892 35.5627C197.073 35.4628 197.261 35.3753 197.455 35.2878L197.561 35.2378H197.648C197.873 35.1503 198.098 35.0628 198.336 34.9941H198.367C198.617 34.9191 198.873 34.8629 199.129 34.8129C199.158 34.8158 199.188 34.8158 199.217 34.8129H199.342C199.567 34.7754 199.798 34.7504 200.029 34.7316H200.142H200.179C200.473 34.716 200.767 34.716 201.06 34.7316C201.089 34.7285 201.119 34.7285 201.148 34.7316H201.435H201.635L202.26 34.8066C202.485 34.8066 202.71 34.8816 202.941 34.9316L203.16 34.9878C203.31 34.9878 203.454 35.0503 203.597 35.0941H203.641C203.91 35.1691 204.185 35.2503 204.46 35.344L204.628 35.4065C204.853 35.4877 205.078 35.569 205.303 35.6627L205.391 35.7002L205.56 35.7752C205.797 35.8752 206.041 35.9877 206.284 36.1064L206.559 36.2376C206.878 36.4001 207.184 36.5688 207.522 36.7563C207.859 36.9438 208.328 37.2437 208.722 37.5124L208.928 37.6436C209.303 37.9061 209.678 38.1748 210.046 38.4623L210.259 38.6247C210.634 38.9247 211.009 39.2496 211.371 39.5496L211.465 39.6308C211.821 39.9433 212.165 40.2557 212.508 40.5994L212.608 40.6994L212.677 40.7619C212.933 41.0243 213.196 41.2868 213.452 41.5617L213.49 41.6055C213.733 41.8617 213.971 42.1241 214.208 42.3991L214.277 42.4741C214.302 42.5089 214.329 42.5423 214.358 42.5741C214.739 43.0177 215.114 43.4677 215.477 43.9363L215.508 43.9738L215.589 44.0863C215.877 44.4613 216.164 44.8424 216.439 45.2361L216.52 45.3486L216.558 45.4049C216.826 45.786 217.083 46.1672 217.333 46.5547C217.333 46.5922 217.383 46.6296 217.401 46.6671L217.508 46.8359C217.708 47.1546 217.908 47.4608 218.095 47.7982L218.189 47.9544L218.226 48.0107L218.851 49.1417C218.865 49.1742 218.882 49.2056 218.901 49.2355L218.995 49.4229C219.157 49.7291 219.307 50.0478 219.457 50.3415L219.557 50.529C219.557 50.5665 219.557 50.6102 219.607 50.6477C219.795 51.0352 219.976 51.4226 220.145 51.8163C220.147 51.8286 220.147 51.8414 220.145 51.8538C220.164 51.8922 220.181 51.9319 220.195 51.9725C220.351 52.3287 220.495 52.6849 220.638 53.0473C220.638 53.1036 220.682 53.1598 220.707 53.2161C220.732 53.2723 220.738 53.316 220.757 53.366C220.92 53.7847 221.069 54.2096 221.213 54.6158C221.217 54.6386 221.217 54.6618 221.213 54.6846C221.357 55.122 221.488 55.5594 221.613 56.0031C221.633 56.0561 221.65 56.1103 221.663 56.1656C221.665 56.1947 221.665 56.2239 221.663 56.253C221.801 56.7655 221.926 57.2716 222.038 57.7778C222.046 57.8241 222.057 57.87 222.069 57.9153L222.107 58.109C222.148 58.309 222.186 58.5173 222.219 58.7339L222.294 59.1463C222.332 59.3525 222.357 59.5587 222.388 59.7712C222.388 59.8649 222.419 59.9587 222.432 60.0587C222.444 60.1586 222.432 60.1087 222.432 60.1337C222.488 60.5711 222.532 61.0085 222.563 61.4397C222.563 61.5334 222.563 61.6209 222.563 61.7146C222.563 62.1583 222.607 62.602 222.607 63.0394C222.607 67.8386 220.901 71.2193 218.164 72.8065L214.414 74.9749L214.652 74.825C214.733 74.775 214.814 74.725 214.889 74.6687C214.988 74.5848 215.08 74.4928 215.164 74.3938Z" fill="#EBEBEB"/>
<path d="M188.425 47.5357C188.425 57.1966 195.192 68.9697 203.604 73.8251C207.978 76.3247 211.89 76.4997 214.677 74.7374C214.758 74.6875 214.839 74.6375 214.914 74.5812C215.002 74.5243 215.085 74.4617 215.164 74.3938C215.239 74.3375 215.32 74.2875 215.395 74.225L215.627 74.0188C215.702 73.9501 215.777 73.8938 215.845 73.8251L216.064 73.5939L216.27 73.3814L216.476 73.1315L216.664 72.9003C216.733 72.8128 216.789 72.7253 216.858 72.6316C216.926 72.5378 216.976 72.4691 217.033 72.3816C217.089 72.2941 217.151 72.1879 217.208 72.0879L217.37 71.8192C217.426 71.7192 217.476 71.613 217.526 71.5067C217.576 71.4005 217.626 71.3193 217.67 71.2255C217.714 71.1318 217.77 71.0006 217.82 70.8881C217.87 70.7756 217.907 70.6881 217.945 70.5881L218.076 70.2257L218.189 69.9132C218.226 69.7883 218.264 69.6633 218.295 69.5321C218.326 69.4008 218.364 69.3134 218.395 69.2009C218.426 69.0884 218.457 68.9384 218.482 68.8009C218.507 68.6635 218.539 68.576 218.564 68.4572C218.589 68.3385 218.614 68.1698 218.639 68.0198C218.664 67.8698 218.682 67.7949 218.701 67.6761C218.72 67.5574 218.739 67.3387 218.757 67.1762C218.776 67.0137 218.789 66.9637 218.801 66.8575L218.839 66.2826C218.839 66.1889 218.839 66.1014 218.839 66.0077C218.839 65.7139 218.839 65.4202 218.839 65.1203C218.839 64.6829 218.839 64.2392 218.795 63.7955V63.7393C218.764 63.2394 218.72 62.7457 218.657 62.2395C218.657 62.1833 218.657 62.127 218.657 62.0708C218.62 61.8021 218.582 61.5334 218.539 61.2584L218.464 60.846L218.351 60.2211C218.351 60.1836 218.351 60.1524 218.351 60.1211C218.116 58.9975 217.82 57.8877 217.464 56.7967C216.97 55.3233 216.377 53.8848 215.689 52.4911L215.645 52.3974C215.258 51.61 214.845 50.8289 214.395 50.0666C214.358 49.9978 214.314 49.9291 214.271 49.8603C214.071 49.5187 213.862 49.1813 213.646 48.848C213.596 48.773 213.552 48.6918 213.496 48.6105C212.921 47.7169 212.315 46.8546 211.665 46.0235C211.04 45.2111 210.365 44.4237 209.671 43.6864C209.409 43.4052 209.14 43.1302 208.865 42.8553L208.734 42.7303C208.384 42.3866 208.022 42.0491 207.659 41.7242L207.615 41.6867C207.234 41.3492 206.847 41.0618 206.453 40.7181L206.241 40.5556C205.872 40.2682 205.497 39.9995 205.116 39.737H205.072C204.835 39.5745 204.591 39.4183 204.347 39.2683C204.103 39.1184 203.928 39.0059 203.722 38.8872C203.397 38.6997 203.097 38.5247 202.76 38.3685H202.729C201.807 37.899 200.843 37.5202 199.848 37.2374L199.573 37.1687L199.154 37.0687C199.054 37.0687 198.954 37.0312 198.854 37.0125L198.467 36.9375L198.148 36.9L197.648 36.85H197.455C197.092 36.8282 196.729 36.8282 196.367 36.85H196.192C195.961 36.85 195.736 36.8937 195.517 36.9312C195.199 36.9831 194.884 37.0519 194.574 37.1375L194.461 37.1749C194.255 37.2374 194.049 37.3124 193.836 37.3874L193.73 37.4312C193.45 37.548 193.176 37.6816 192.912 37.8311C190.143 39.3683 188.437 42.7178 188.425 47.5357ZM198.123 68.0698L198.079 68.0198C197.861 67.7824 197.642 67.5449 197.423 67.2949L197.286 67.1325C196.93 66.72 196.586 66.3014 196.248 65.8827C196.211 65.8389 196.18 65.7889 196.142 65.7389C195.874 65.3953 195.611 65.0391 195.361 64.6829L195.249 64.5266C195.007 64.1767 194.77 63.8205 194.536 63.4581L194.368 63.2019C194.18 62.9102 193.999 62.6103 193.824 62.302L193.705 62.1145C193.505 61.7729 193.311 61.423 193.124 61.0647L192.987 60.8023C192.837 60.5211 192.699 60.2399 192.562 59.9587L192.418 59.6775C192.249 59.315 192.08 58.9588 191.924 58.5964C191.924 58.5401 191.88 58.4901 191.862 58.4402C191.718 58.1152 191.587 57.8153 191.456 57.4591L191.343 57.1654C191.199 56.7717 191.056 56.3843 190.924 55.9906C190.924 55.9906 190.924 55.9281 190.924 55.8968C190.793 55.4906 190.668 55.0845 190.556 54.6845L190.487 54.4471C190.362 53.9784 190.243 53.5097 190.143 53.0411C190.143 52.9411 190.1 52.8348 190.075 52.7349C190.05 52.6349 190.006 52.3662 189.975 52.185C189.943 52.0037 189.931 51.9475 189.912 51.835C189.875 51.6288 189.843 51.4288 189.818 51.2101C189.793 50.9914 189.818 50.9852 189.768 50.8727C189.718 50.4727 189.681 50.0666 189.65 49.6666C189.65 49.5791 189.65 49.4979 189.65 49.4104C189.65 49.0042 189.606 48.5918 189.612 48.1606C189.612 47.8815 189.612 47.6065 189.612 47.3358C189.612 47.2358 189.612 47.142 189.612 47.0358L189.65 46.5484L189.687 46.2484C189.687 46.0922 189.687 45.9422 189.743 45.7923C189.8 45.6423 189.775 45.586 189.793 45.4798C189.812 45.3736 189.837 45.2049 189.868 45.0674C189.9 44.9299 189.912 44.8612 189.937 44.7549C189.962 44.6487 189.993 44.4987 190.025 44.38C190.056 44.2613 190.081 44.1738 190.112 44.0738C190.143 43.9738 190.181 43.8363 190.218 43.7239C190.256 43.6114 190.287 43.5239 190.318 43.4302C190.349 43.3364 190.393 43.2052 190.437 43.099L190.556 42.8178C190.599 42.7178 190.643 42.6115 190.693 42.5116C190.743 42.4116 190.781 42.3366 190.824 42.2491C190.868 42.1616 190.918 42.0491 190.974 41.9554C191.031 41.8617 191.068 41.7929 191.118 41.7117C191.168 41.6305 191.224 41.5305 191.287 41.4367L191.443 41.2118C191.506 41.1243 191.562 41.0368 191.624 40.9556C191.687 40.8743 191.743 40.8181 191.799 40.7431C191.855 40.6681 191.924 40.5869 191.993 40.5119C192.062 40.4369 192.118 40.3807 192.18 40.3182L192.38 40.1057L192.587 39.9245C192.655 39.862 192.724 39.7933 192.799 39.737C192.874 39.6808 192.943 39.6245 193.018 39.5683L193.243 39.3996L193.468 39.2558C194.159 38.82 194.923 38.511 195.724 38.3435C197.992 37.8623 200.723 38.3935 203.704 40.1057C211.483 44.5925 217.776 55.4844 217.751 64.4267C217.751 67.7574 216.851 70.3507 215.339 72.0566C214.838 72.6259 214.247 73.1093 213.589 73.4877L213.514 73.5252C213.327 73.6251 213.139 73.7189 212.939 73.8064L212.758 73.8813C212.572 73.9583 212.383 74.025 212.19 74.0813H212.09C211.859 74.148 211.626 74.2022 211.39 74.2438H211.209C211.002 74.2438 210.796 74.3 210.584 74.3188H210.421C210.152 74.3188 209.884 74.3188 209.603 74.3188H209.434H208.984L208.471 74.2563L208.147 74.1938L207.84 74.1376L207.59 74.0751L207.197 73.9751C206.676 73.8309 206.165 73.6557 205.666 73.4502L205.434 73.3502C205.166 73.2314 204.891 73.1065 204.616 72.969L204.503 72.919C204.21 72.769 203.916 72.6128 203.616 72.4378C203.316 72.2629 202.872 71.9879 202.504 71.7442L202.454 71.7067C202.016 71.413 201.579 71.0818 201.154 70.7631L201.085 70.7069C200.717 70.4194 200.354 70.1257 199.998 69.807C199.998 69.807 199.998 69.807 199.967 69.807C199.642 69.5196 199.342 69.2196 199.004 68.9134L198.848 68.7634C198.598 68.5697 198.361 68.3198 198.123 68.0698Z" fill="white"/>
<path d="M137.715 121.742L159.124 109.457C160.998 108.382 165.441 109.838 165.441 112.85C165.441 112.606 165.376 112.366 165.254 112.155C165.132 111.943 164.956 111.768 164.745 111.646C164.534 111.524 164.294 111.459 164.05 111.459C163.806 111.458 163.566 111.522 163.354 111.644L141.939 123.929C141.237 124.34 140.672 124.949 140.314 125.679L136.159 123.317C136.525 122.66 137.062 122.116 137.715 121.742Z" fill="#F88D74"/>
<path d="M140.314 125.679C140.009 126.257 139.846 126.9 139.839 127.554V139.858C139.84 140.102 139.904 140.342 140.027 140.553C140.149 140.764 140.324 140.94 140.536 141.062C140.747 141.184 140.987 141.248 141.231 141.249C141.475 141.249 141.715 141.185 141.926 141.064C141.309 141.453 140.599 141.672 139.869 141.697C139.14 141.723 138.416 141.554 137.773 141.208C137.13 140.863 136.59 140.352 136.209 139.73C135.827 139.107 135.618 138.394 135.603 137.664V125.366C135.603 124.648 135.791 123.941 136.146 123.317L140.314 125.679Z" fill="#F88D74"/>
<path opacity="0.4" d="M137.715 121.742L159.124 109.457C160.998 108.382 165.441 109.838 165.441 112.85C165.441 112.606 165.376 112.366 165.254 112.155C165.132 111.943 164.956 111.768 164.745 111.646C164.534 111.524 164.294 111.459 164.05 111.459C163.806 111.458 163.566 111.522 163.354 111.644L141.939 123.929C141.237 124.34 140.672 124.949 140.314 125.679L136.159 123.317C136.525 122.66 137.062 122.116 137.715 121.742Z" fill="white"/>
<path opacity="0.2" d="M140.314 125.679C140.009 126.257 139.846 126.9 139.839 127.554V139.858C139.84 140.102 139.904 140.342 140.027 140.553C140.149 140.764 140.324 140.94 140.536 141.062C140.747 141.184 140.987 141.248 141.231 141.249C141.475 141.249 141.715 141.185 141.926 141.064C141.309 141.453 140.599 141.672 139.869 141.697C139.14 141.723 138.416 141.554 137.773 141.208C137.13 140.863 136.59 140.352 136.209 139.73C135.827 139.107 135.618 138.394 135.603 137.664V125.366C135.603 124.648 135.791 123.941 136.146 123.317L140.314 125.679Z" fill="white"/>
<path d="M163.354 111.644L141.939 123.929C141.301 124.296 140.772 124.824 140.403 125.46C140.035 126.096 139.84 126.818 139.839 127.554V139.858C139.84 140.102 139.904 140.342 140.026 140.553C140.149 140.764 140.324 140.94 140.536 141.062C140.747 141.184 140.987 141.248 141.231 141.249C141.475 141.249 141.715 141.185 141.926 141.064L163.335 128.835C163.975 128.468 164.506 127.94 164.876 127.302C165.246 126.665 165.441 125.941 165.441 125.204V112.85C165.441 112.606 165.376 112.366 165.254 112.155C165.132 111.943 164.956 111.768 164.745 111.646C164.534 111.524 164.294 111.459 164.05 111.459C163.806 111.459 163.566 111.522 163.354 111.644Z" fill="#F88D74"/>
<path d="M134.69 135.665L139.833 136.627V130.028L134.509 135.065C134.461 135.11 134.427 135.167 134.411 135.229C134.394 135.292 134.395 135.359 134.414 135.421C134.432 135.483 134.468 135.539 134.517 135.582C134.566 135.625 134.626 135.654 134.69 135.665Z" fill="#F88D74"/>
<path d="M159.667 120.53C159.095 120.9 158.619 121.401 158.278 121.991C157.937 122.58 157.741 123.243 157.705 123.923C157.705 125.173 158.592 125.667 159.686 125.042C160.254 124.67 160.728 124.17 161.066 123.582C161.405 122.993 161.6 122.333 161.635 121.655C161.635 120.405 160.748 119.911 159.667 120.53Z" fill="white"/>
<path d="M152.706 124.554C152.133 124.923 151.656 125.424 151.315 126.014C150.974 126.604 150.778 127.267 150.744 127.947C150.744 129.197 151.631 129.691 152.718 129.06C153.289 128.69 153.764 128.19 154.104 127.601C154.444 127.013 154.639 126.352 154.674 125.673C154.674 124.423 153.787 123.929 152.706 124.554Z" fill="white"/>
<path d="M145.745 128.572C145.175 128.943 144.7 129.442 144.361 130.031C144.021 130.62 143.825 131.28 143.789 131.959C143.789 133.209 144.67 133.709 145.757 133.078C146.328 132.708 146.803 132.209 147.143 131.62C147.483 131.031 147.679 130.37 147.713 129.691C147.707 128.441 146.851 127.941 145.745 128.572Z" fill="white"/>
<path d="M139.833 130.028L135.602 127.61L130.285 132.697C130.244 132.734 130.212 132.781 130.193 132.833C130.174 132.885 130.167 132.941 130.173 132.997C130.179 133.052 130.198 133.105 130.228 133.152C130.258 133.198 130.299 133.237 130.347 133.265L134.559 135.621L139.833 130.028Z" fill="#F88D74"/>
<path opacity="0.2" d="M139.833 130.028L135.602 127.61L130.285 132.697C130.244 132.734 130.212 132.781 130.193 132.833C130.174 132.885 130.167 132.941 130.173 132.997C130.179 133.052 130.198 133.105 130.228 133.152C130.258 133.198 130.299 133.237 130.347 133.265L134.559 135.621L139.833 130.028Z" fill="white"/>
<path d="M239.085 81.6299C239.654 81.9974 240.127 82.4941 240.467 83.0794C240.807 83.6648 241.004 84.3222 241.041 84.9981C241.041 86.2479 240.154 86.7291 239.073 86.1042C238.507 85.7367 238.037 85.2404 237.7 84.6561C237.363 84.0717 237.17 83.4158 237.136 82.7422C237.136 81.4987 238.017 81.0113 239.085 81.6299Z" fill="white"/>
<path d="M245.997 85.6106C246.565 85.9773 247.039 86.474 247.378 87.0596C247.717 87.6452 247.912 88.3031 247.946 88.9788C247.946 90.2286 247.065 90.7098 245.984 90.0849C245.418 89.7174 244.948 89.2212 244.611 88.6368C244.275 88.0524 244.081 87.3965 244.047 86.723C244.047 85.4919 244.959 84.9857 245.997 85.6106Z" fill="white"/>
<path d="M252.895 94.0841C252.329 93.7166 251.858 93.2205 251.521 92.6362C251.183 92.052 250.988 91.3961 250.952 90.7222C250.952 89.4724 251.827 88.985 252.908 89.6099C253.474 89.9748 253.946 90.4697 254.283 91.0533C254.62 91.6369 254.812 92.2925 254.845 92.9656C254.845 94.2091 253.977 94.7028 252.895 94.0841Z" fill="white"/>
<path d="M233.361 74.0063V86.2667C233.362 86.9972 233.555 87.7146 233.922 88.3465C234.288 88.9784 234.815 89.5026 235.448 89.8661L251.846 99.2396L249.015 97.6211L250.371 101.477C250.392 101.532 250.434 101.577 250.487 101.603C250.541 101.628 250.602 101.633 250.658 101.614C250.896 101.489 251.964 100.914 252.571 100.514H252.614C252.636 100.503 252.655 100.489 252.67 100.471L253.002 99.927L256.695 102.039C257.308 102.417 258.009 102.627 258.729 102.647C259.448 102.668 260.16 102.499 260.794 102.157C261.427 101.815 261.959 101.312 262.337 100.699C262.714 100.086 262.924 99.3843 262.944 98.6647V86.423C262.94 85.7105 262.753 85.0111 262.4 84.3921C262.038 83.7398 261.504 83.1995 260.857 82.8298L239.61 70.6381C237.767 69.5695 233.361 71.0193 233.361 74.0063ZM250.952 90.7222C250.952 89.4725 251.827 88.985 252.908 89.6099C253.474 89.9749 253.946 90.4697 254.283 91.0534C254.62 91.637 254.812 92.2925 254.845 92.9656C254.845 94.2154 253.977 94.7028 252.895 94.0842C252.329 93.7167 251.858 93.2205 251.521 92.6363C251.183 92.052 250.988 91.3962 250.952 90.7222ZM244.078 86.7292C244.078 85.4794 244.959 84.9982 246.028 85.6168C246.597 85.9835 247.07 86.4802 247.409 87.0658C247.748 87.6514 247.943 88.3093 247.978 88.985C247.978 90.2348 247.096 90.716 246.015 90.0911C245.444 89.7272 244.967 89.2324 244.625 88.6478C244.283 88.0632 244.085 87.4055 244.047 86.7292H244.078ZM237.167 82.7423C237.167 81.4925 238.048 81.0114 239.116 81.63C239.685 81.9975 240.159 82.4942 240.498 83.0795C240.838 83.6649 241.035 84.3223 241.072 84.9982C241.072 86.248 240.185 86.7292 239.104 86.1043C238.533 85.7403 238.056 85.2456 237.714 84.661C237.372 84.0764 237.173 83.4187 237.136 82.7423H237.167Z" fill="#F88D74"/>
<path opacity="0.2" d="M252.67 100.439C252.655 100.457 252.636 100.472 252.614 100.483H252.571C251.946 100.883 250.896 101.458 250.658 101.583C250.686 101.578 250.712 101.566 250.734 101.55C250.757 101.534 250.776 101.513 250.79 101.489L252.108 99.3582L251.846 99.2082L253.002 99.8706L252.67 100.439Z" fill="white"/>
<path opacity="0.4" d="M258.295 86.7354C258.03 86.1992 257.652 85.7261 257.189 85.3481C257.03 85.2229 256.863 85.1081 256.689 85.0044L235.442 72.8189C235.233 72.6986 234.995 72.6354 234.753 72.6357C234.512 72.636 234.274 72.6998 234.065 72.8206C233.855 72.9414 233.681 73.1151 233.56 73.3243C233.439 73.5334 233.375 73.7707 233.374 74.0125C233.374 71.0255 237.779 69.5757 239.623 70.6443L260.869 82.836C261.517 83.2057 262.051 83.7461 262.413 84.3983L258.295 86.7354Z" fill="white"/>
<path opacity="0.2" d="M258.763 100.808V88.5976C258.773 88.4353 258.773 88.2725 258.763 88.1102C258.698 87.6302 258.55 87.1651 258.326 86.7355L262.45 84.3921C262.803 85.0112 262.99 85.7106 262.994 86.423V98.6335C262.974 99.353 262.764 100.055 262.387 100.668C262.009 101.281 261.477 101.783 260.844 102.125C260.21 102.467 259.498 102.637 258.779 102.616C258.059 102.595 257.358 102.386 256.745 102.008C256.953 102.116 257.186 102.17 257.421 102.163C257.656 102.157 257.886 102.09 258.088 101.97C258.29 101.85 258.458 101.68 258.576 101.477C258.695 101.273 258.759 101.043 258.763 100.808Z" fill="white"/>
<path d="M277.647 221.969L267.955 222.251L258.257 221.969C257.844 228.512 259.119 235.186 260.881 238.448C261.299 239.284 261.971 239.967 262.8 240.398C265.662 242.047 270.299 242.047 273.129 240.398C273.973 239.96 274.648 239.254 275.048 238.392C276.829 235.117 278.079 228.481 277.647 221.969Z" fill="white"/>
<path d="M274.785 217.995C278.585 220.188 278.61 223.744 274.835 225.937C271.061 228.131 264.918 228.131 261.119 225.937C257.32 223.744 257.301 220.188 261.075 217.995C264.85 215.802 270.992 215.802 274.785 217.995Z" fill="#EBEBEB"/>
<path d="M273.286 218.87C276.248 220.582 276.266 223.357 273.323 225.063C270.38 226.768 265.587 226.775 262.625 225.063C259.663 223.35 259.644 220.582 262.588 218.87C265.531 217.158 270.324 217.158 273.286 218.87Z" fill="#C4C4C4"/>
<g opacity="0.15">
<path opacity="0.15" d="M273.286 218.87C276.248 220.582 276.266 223.357 273.323 225.063C270.38 226.768 265.587 226.775 262.625 225.063C259.663 223.35 259.644 220.582 262.588 218.87C265.531 217.158 270.324 217.158 273.286 218.87Z" fill="black"/>
</g>
<path d="M283.896 180.595C262.025 187.75 261.85 202.366 266.774 212.777C268.024 214.883 271.773 216.014 275.048 203.066L269.33 203.804L276.016 200.41L277.754 195.218L272.18 195.636L279.253 192.655C280.553 188.544 282.103 184.516 283.896 180.595Z" fill="#F88D74"/>
<path opacity="0.2" d="M283.896 180.595C262.025 187.75 261.85 202.366 266.774 212.777C268.024 214.883 271.773 216.014 275.048 203.066L269.33 203.804L276.016 200.41L277.754 195.218L272.18 195.636L279.253 192.655C280.553 188.544 282.103 184.516 283.896 180.595Z" fill="black"/>
<path opacity="0.2" d="M283.896 180.595C262.025 187.75 261.85 202.366 266.774 212.777C268.024 214.883 271.773 216.014 275.048 203.066L269.33 203.804L276.016 200.41L277.754 195.218L272.18 195.636L279.253 192.655C280.553 188.544 282.103 184.516 283.896 180.595Z" fill="white"/>
<path d="M277.716 184.251C266.193 192.999 265.156 202.997 268.412 213.489C267.255 204.272 266.012 194.968 277.716 184.251Z" fill="white"/>
<path d="M246.89 195.442C268.424 198.473 271.036 212.052 268.18 222.569C267.374 224.738 264.062 226.412 258.863 214.902L264.331 214.633L257.538 212.59L255.039 208.04L260.3 207.497L253.214 205.903C251.324 202.289 249.212 198.796 246.89 195.442Z" fill="#F88D74"/>
<path opacity="0.2" d="M246.89 195.442C268.424 198.473 271.036 212.052 268.18 222.569C267.374 224.738 264.062 226.412 258.863 214.902L264.331 214.633L257.538 212.59L255.039 208.04L260.3 207.497L253.214 205.903C251.324 202.289 249.212 198.796 246.89 195.442Z" fill="white"/>
<path opacity="0.1" d="M246.89 195.442C268.424 198.473 271.036 212.052 268.18 222.569C267.374 224.738 264.062 226.412 258.863 214.902L264.331 214.633L257.538 212.59L255.039 208.04L260.3 207.497L253.214 205.903C251.324 202.289 249.212 198.796 246.89 195.442Z" fill="black"/>
<path d="M253.252 197.817C265.437 204.066 268.068 213.214 266.774 223.5C266.318 214.727 265.931 205.841 253.252 197.817Z" fill="white"/>
<path d="M290.202 200.529C270.449 200.854 266.574 212.802 267.974 222.594C268.455 224.644 271.255 226.525 277.229 216.733L272.33 215.877L278.703 214.796L281.447 210.971L276.766 209.896L283.328 209.271C285.435 206.217 287.73 203.297 290.202 200.529Z" fill="#F88D74"/>
<path d="M284.196 201.96C272.517 206.216 269.118 214.177 269.13 223.594C270.53 215.739 271.873 207.772 284.196 201.96Z" fill="white"/>
<path opacity="0.2" d="M290.202 200.529C270.449 200.854 266.574 212.802 267.974 222.594C268.455 224.644 271.255 226.525 277.229 216.733L272.33 215.877L278.703 214.796L281.447 210.971L276.766 209.896L283.328 209.271C285.435 206.217 287.73 203.297 290.202 200.529Z" fill="white"/>
<path d="M193.555 90.0475C193.974 88.5664 196.973 85.7607 199.96 85.8169C200.246 85.8274 200.529 85.8822 200.798 85.9794L258.8 118.98C259.647 119.471 260.352 120.174 260.844 121.02C261.336 121.866 261.599 122.826 261.606 123.804V249.265C261.606 252.458 257.919 255.514 254.457 254.039C254.38 254.013 254.305 253.982 254.232 253.945L196.217 220.882C195.367 220.398 194.66 219.697 194.168 218.85C193.676 218.004 193.417 217.043 193.418 216.064V90.6536C193.414 90.4434 193.461 90.2354 193.555 90.0475Z" fill="#37474F"/>
<path d="M253.508 137.065C253.508 136.575 253.378 136.094 253.132 135.67C252.886 135.247 252.533 134.896 252.108 134.653L198.254 104.033C198.043 103.912 197.804 103.849 197.561 103.85C197.318 103.851 197.08 103.916 196.87 104.038C196.66 104.16 196.485 104.336 196.364 104.546C196.243 104.757 196.18 104.996 196.18 105.239V206.384C196.181 206.874 196.311 207.355 196.556 207.778C196.802 208.202 197.155 208.553 197.58 208.796L251.433 239.485C251.644 239.606 251.883 239.668 252.126 239.667C252.369 239.666 252.608 239.602 252.818 239.479C253.028 239.357 253.202 239.182 253.323 238.972C253.444 238.761 253.508 238.522 253.508 238.279V137.065Z" fill="#F88D74"/>
<path opacity="0.3" d="M253.508 137.065C253.508 136.575 253.378 136.094 253.132 135.67C252.886 135.247 252.533 134.896 252.108 134.653L198.254 104.033C198.043 103.912 197.804 103.849 197.561 103.85C197.318 103.851 197.08 103.916 196.87 104.038C196.66 104.16 196.485 104.336 196.364 104.546C196.243 104.757 196.18 104.996 196.18 105.239V206.384C196.181 206.874 196.311 207.355 196.556 207.778C196.802 208.202 197.155 208.553 197.58 208.796L251.433 239.485C251.644 239.606 251.883 239.668 252.126 239.667C252.369 239.666 252.608 239.602 252.818 239.479C253.028 239.357 253.202 239.182 253.323 238.972C253.444 238.761 253.508 238.522 253.508 238.279V137.065Z" fill="white"/>
<path d="M261.6 123.804V249.265C261.6 252.458 257.913 255.514 254.451 254.039C254.661 254.119 254.888 254.147 255.111 254.12C255.334 254.093 255.547 254.012 255.732 253.884C255.917 253.756 256.067 253.585 256.171 253.385C256.274 253.186 256.328 252.964 256.326 252.739V127.273C256.322 126.18 255.996 125.113 255.389 124.204L261.069 121.367C261.426 122.13 261.608 122.963 261.6 123.804Z" fill="#263238"/>
<path d="M199.966 85.8169C200.252 85.8274 200.535 85.8822 200.804 85.9794L258.807 118.98C259.773 119.534 260.55 120.366 261.038 121.367L255.357 124.204C254.88 123.479 254.238 122.877 253.483 122.448L195.486 89.4475C195.32 89.3551 195.137 89.2979 194.948 89.2795C194.759 89.2611 194.568 89.2818 194.387 89.3405C194.207 89.3991 194.04 89.4944 193.898 89.6203C193.756 89.7463 193.641 89.9002 193.561 90.0724C193.967 88.5664 196.967 85.7607 199.966 85.8169Z" fill="#455A64"/>
<path d="M217.695 110.169C217.289 109.932 216.951 110.113 216.951 110.582C216.968 110.833 217.044 111.077 217.172 111.294C217.3 111.511 217.477 111.695 217.689 111.831L229.068 118.405C229.474 118.636 229.805 118.443 229.805 117.974C229.789 117.723 229.714 117.48 229.587 117.263C229.46 117.046 229.285 116.862 229.074 116.724L217.695 110.169Z" fill="#263238"/>
<path d="M231.999 118.424C231.586 118.187 231.261 118.374 231.261 118.843C231.278 119.093 231.353 119.337 231.48 119.554C231.607 119.77 231.782 119.955 231.992 120.093C232.399 120.324 232.736 120.136 232.736 119.668C232.718 119.417 232.642 119.175 232.514 118.959C232.386 118.743 232.21 118.56 231.999 118.424Z" fill="#263238"/>
<path d="M224.712 109.213C223.9 108.738 223.244 109.113 223.238 110.05C223.263 110.561 223.409 111.059 223.663 111.503C223.917 111.947 224.273 112.325 224.7 112.606C225.519 113.075 226.193 112.694 226.193 111.756C226.165 111.246 226.016 110.749 225.759 110.307C225.501 109.865 225.143 109.49 224.712 109.213Z" fill="#263238"/>
<path d="M224.706 227.318C223.05 226.362 221.713 227.125 221.707 229.031C221.759 230.072 222.056 231.085 222.574 231.99C223.092 232.894 223.816 233.664 224.687 234.236C226.343 235.192 227.718 234.411 227.724 232.505C227.665 231.464 227.361 230.452 226.836 229.55C226.312 228.649 225.582 227.884 224.706 227.318Z" fill="#263238"/>
<path d="M219.376 161.523L217.439 160.442C215.6 159.414 213.483 158.997 211.392 159.25C209.301 159.502 207.344 160.412 205.803 161.848L189.606 176.902C189.606 176.902 183.475 165.735 182.351 162.06C181.994 160.898 182.676 159.648 183.013 158.48C183.432 157.334 183.565 156.102 183.4 154.893C183.128 153.325 183.252 151.714 183.763 150.206C183.802 150.077 183.81 149.94 183.785 149.807C183.761 149.675 183.704 149.55 183.621 149.444C183.537 149.337 183.429 149.253 183.306 149.197C183.183 149.142 183.048 149.117 182.913 149.125H182.738C182.301 149.148 181.885 149.317 181.557 149.606C181.256 149.929 181.041 150.322 180.932 150.75C180.595 151.816 180.362 152.913 180.239 154.024C179.303 151.901 178.853 149.595 178.92 147.275C179.031 146.393 179.016 145.498 178.876 144.62C178.802 144.181 178.601 143.773 178.3 143.446C177.998 143.119 177.608 142.886 177.177 142.776C176.729 143.408 176.402 144.118 176.214 144.87C175.955 144.761 175.676 144.708 175.395 144.714C175.114 144.721 174.837 144.787 174.583 144.907C174.356 145.047 174.162 145.234 174.016 145.457C173.869 145.679 173.772 145.931 173.733 146.194C172.434 146.288 171.315 147.444 170.784 148.631C170.314 149.854 170.144 151.172 170.29 152.475C170.561 156.756 172.082 160.865 174.664 164.291C176.758 172.259 178.626 181.239 181.607 188.219C181.955 189.015 182.474 189.725 183.126 190.3C183.778 190.874 184.548 191.299 185.382 191.544C186.216 191.789 187.094 191.848 187.953 191.717C188.812 191.586 189.632 191.269 190.356 190.787C197.622 185.941 204.637 180.727 211.371 175.165L219.376 161.523Z" fill="#FFA8A7"/>
<path d="M219.376 161.523L217.439 160.442C215.6 159.414 213.483 158.997 211.392 159.25C209.301 159.502 207.344 160.412 205.803 161.848L193.049 173.721C194.299 180.207 200.416 184.713 200.416 184.713L211.44 175.177L219.376 161.523Z" fill="#F88D74"/>
<path opacity="0.2" d="M219.376 161.523L217.439 160.442C215.6 159.414 213.483 158.997 211.392 159.25C209.301 159.502 207.344 160.412 205.803 161.848L193.049 173.721C194.299 180.207 200.416 184.713 200.416 184.713L211.44 175.177L219.376 161.523Z" fill="black"/>
<path d="M191.218 184.344C191.274 181.114 190.593 179.276 189.587 176.877L190.437 176.089C191.218 177.114 192.768 179.82 191.218 184.344Z" fill="#F28F8F"/>
<path d="M178.72 162.304C177.861 161.371 177.396 160.142 177.421 158.874C177.447 157.606 177.961 156.397 178.857 155.499C178.216 155.769 177.663 156.211 177.259 156.778C176.855 157.344 176.617 158.011 176.57 158.705C176.577 159.442 176.78 160.163 177.158 160.796C177.536 161.428 178.075 161.949 178.72 162.304Z" fill="#F28F8F"/>
<path d="M206.572 207.422L241.278 207.99C241.278 207.99 243.259 218.801 243.822 235.148L206.665 213.977L206.572 207.422Z" fill="#455A64"/>
<g opacity="0.2">
<path opacity="0.2" d="M206.572 207.422L241.278 207.99C241.278 207.99 243.259 218.801 243.822 235.148L206.665 213.977L206.572 207.422Z" fill="white"/>
</g>
<path d="M219.12 159.174L215.814 159.523C214.607 159.648 213.443 160.042 212.408 160.676C211.373 161.31 210.494 162.167 209.834 163.185C206.44 168.422 204.834 176.439 205.772 185.119C206.909 195.93 205.516 211.784 205.516 211.784C219.857 222.257 241.547 217.495 243.822 215.22L242.353 198.598C242.118 196.337 242.078 194.061 242.235 191.793C242.609 188.394 244.734 181.039 245.034 176.239C245.225 171.97 244.324 167.722 242.416 163.898L229.843 159.174H219.12Z" fill="#F88D74"/>
<g opacity="0.3">
<path opacity="0.3" d="M219.119 159.174L215.814 159.524C214.607 159.648 213.443 160.042 212.408 160.676C211.373 161.31 210.494 162.167 209.834 163.185C206.44 168.422 204.834 176.439 205.772 185.119C206.909 195.93 205.516 211.784 205.516 211.784C219.857 222.257 241.547 217.495 243.822 215.221L242.353 198.598C242.118 196.338 242.078 194.061 242.234 191.793C242.609 188.394 244.734 181.039 245.034 176.239C245.225 171.97 244.324 167.722 242.416 163.898L229.843 159.174H219.119Z" fill="black"/>
</g>
<path d="M229.893 150.844V159.423C229.898 159.985 229.785 160.542 229.56 161.057C229.335 161.572 229.003 162.033 228.587 162.41C226.317 164.412 223.347 165.435 220.326 165.254C219.718 165.262 219.123 165.079 218.626 164.729C218.323 164.432 218.11 164.056 218.013 163.643C217.916 163.23 217.937 162.799 218.076 162.398C218.201 161.994 218.384 161.611 218.62 161.261C219.102 160.536 219.364 159.688 219.376 158.817V150.844H229.893Z" fill="#FFA8A7"/>
<path d="M229.268 150.9L219.376 150.844V158.136C221.607 157.705 223.781 157.13 225.625 155.843C227.345 154.636 228.624 152.9 229.268 150.9Z" fill="#FF9192"/>
<path d="M210.121 136.327C209.018 136.367 207.925 136.101 206.963 135.559C206.001 135.016 205.208 134.218 204.672 133.253C204.601 133.115 204.57 132.96 204.583 132.805C204.596 132.65 204.653 132.503 204.746 132.379C204.839 132.255 204.966 132.159 205.111 132.104C205.256 132.049 205.413 132.035 205.566 132.065C206.329 132.197 207.108 132.197 207.871 132.065C206.995 130.92 206.354 129.613 205.986 128.218C205.618 126.824 205.53 125.37 205.728 123.942C205.752 123.783 205.814 123.632 205.907 123.501C206 123.37 206.122 123.262 206.264 123.187C206.407 123.112 206.564 123.071 206.725 123.067C206.886 123.064 207.045 123.098 207.19 123.167C210.354 124.739 213.875 125.453 217.401 125.235C219.276 125.098 221.151 124.704 223.025 124.56C224.902 124.331 226.807 124.621 228.531 125.398C230.205 126.254 231.543 127.954 231.543 129.835C231.758 129.53 232.037 129.276 232.361 129.09C232.685 128.904 233.045 128.792 233.417 128.76C233.802 128.709 234.193 128.739 234.567 128.846C234.94 128.954 235.287 129.137 235.586 129.385C234.505 129.978 233.442 130.578 232.355 131.172C233.467 130.778 234.854 131.647 235.423 132.69C235.89 133.777 236.094 134.959 236.017 136.14C236.086 137.709 236.017 139.282 235.811 140.839C235.597 142.402 234.984 143.883 234.03 145.138C233.187 146.164 232.064 146.924 230.799 147.325C229.073 147.805 227.242 147.746 225.55 147.157C223.871 146.568 222.273 145.771 220.794 144.782C216.987 142.295 213.414 139.464 210.121 136.327Z" fill="#263238"/>
<path d="M209.884 133.197C208.803 139.692 209.52 146.358 211.958 152.475C212.521 153.887 213.252 155.349 214.577 156.105C215.901 156.861 217.701 156.73 219.251 156.493C221.811 156.202 224.307 155.499 226.643 154.412C228.993 153.301 230.824 151.327 231.755 148.9C232.592 149.073 233.46 148.999 234.256 148.687C235.051 148.375 235.739 147.839 236.235 147.144C237.213 145.705 237.72 143.997 237.685 142.258C237.685 141.152 237.479 139.845 236.485 139.358C235.492 138.871 234.455 139.408 233.655 140.058C232.337 141.129 231.374 142.573 230.893 144.201C230.161 141.508 229.018 138.902 228.293 136.209C228.006 135.146 227.668 133.99 226.725 133.403C225.593 132.678 224.119 133.09 222.813 133.403C218.556 134.438 214.105 134.367 209.884 133.197Z" fill="#FFA8A7"/>
<path d="M217.745 141.383L214.589 146.688L218.351 147.394L217.745 141.383Z" fill="#F28F8F"/>
<path d="M221.975 149.225L219.12 150.6C219.364 150.924 219.706 151.16 220.096 151.273C220.486 151.386 220.902 151.369 221.282 151.225C221.61 151.022 221.858 150.713 221.984 150.348C222.111 149.984 222.108 149.587 221.975 149.225Z" fill="#F28F8F"/>
<path opacity="0.3" d="M221.975 149.225L219.12 150.6C219.364 150.924 219.706 151.16 220.096 151.273C220.486 151.386 220.902 151.369 221.282 151.225C221.61 151.022 221.858 150.713 221.984 150.348C222.111 149.984 222.108 149.587 221.975 149.225Z" fill="black"/>
<path d="M220.288 151.319C220.621 151.386 220.967 151.354 221.282 151.225C221.544 151.078 221.757 150.856 221.893 150.588C222.028 150.32 222.081 150.017 222.044 149.719C221.603 149.713 221.176 149.875 220.85 150.172C220.524 150.469 220.323 150.879 220.288 151.319Z" fill="#F28F8F"/>
<path d="M223.188 141.595C223.209 141.808 223.167 142.022 223.066 142.211C222.965 142.4 222.811 142.554 222.622 142.655C222.434 142.756 222.219 142.799 222.007 142.778C221.794 142.758 221.592 142.674 221.426 142.538C221.261 142.403 221.14 142.221 221.077 142.016C221.015 141.812 221.015 141.593 221.077 141.389C221.14 141.184 221.261 141.002 221.426 140.867C221.592 140.731 221.794 140.647 222.007 140.627C222.291 140.6 222.575 140.687 222.796 140.869C223.017 141.05 223.158 141.311 223.188 141.595Z" fill="#263238"/>
<path d="M214.133 142.151C214.155 142.364 214.114 142.579 214.014 142.769C213.915 142.958 213.761 143.114 213.573 143.216C213.384 143.318 213.17 143.361 212.957 143.341C212.743 143.321 212.541 143.238 212.375 143.103C212.209 142.968 212.087 142.786 212.024 142.582C211.961 142.377 211.961 142.158 212.023 141.953C212.085 141.748 212.206 141.566 212.371 141.43C212.537 141.294 212.739 141.21 212.952 141.189C213.236 141.161 213.52 141.247 213.741 141.427C213.962 141.607 214.103 141.868 214.133 142.151Z" fill="#263238"/>
<path d="M212.658 137.983L210.446 139.858C210.311 139.574 210.266 139.256 210.319 138.946C210.371 138.636 210.518 138.35 210.74 138.127C211.014 137.925 211.339 137.805 211.678 137.78C212.018 137.754 212.357 137.825 212.658 137.983Z" fill="#263238"/>
<path d="M221.838 136.927L224.381 138.333C224.457 138.029 224.438 137.709 224.326 137.416C224.215 137.124 224.016 136.872 223.756 136.696C223.447 136.552 223.103 136.497 222.764 136.538C222.425 136.579 222.104 136.714 221.838 136.927Z" fill="#263238"/>
<path d="M243.891 191.93L247.209 204.072L234.336 214.864C233.418 215.631 232.251 216.033 231.055 215.995C229.741 215.908 228.42 215.986 227.125 216.226C226.112 216.451 225.131 216.783 224.125 217.014C223.421 217.193 222.696 217.284 221.969 217.282C221.817 217.272 221.665 217.302 221.528 217.37C221.391 217.437 221.275 217.539 221.19 217.666C221.105 217.792 221.055 217.939 221.045 218.091C221.035 218.243 221.065 218.395 221.132 218.532C221.237 218.752 221.383 218.95 221.563 219.113C222.104 219.534 222.755 219.788 223.438 219.845C224.509 219.995 225.6 219.938 226.65 219.676C225.593 220.86 224.217 221.714 222.688 222.138C221.238 222.625 219.726 222.9 218.282 223.388C217.731 223.536 217.238 223.85 216.87 224.288C216.696 224.513 216.618 224.798 216.652 225.081C216.686 225.364 216.829 225.622 217.051 225.8C217.676 226.181 218.507 225.619 219.182 225.887C219.101 226.275 219.101 226.675 219.182 227.062C219.297 227.46 219.552 227.802 219.901 228.024C220.077 228.132 220.278 228.191 220.483 228.198C220.689 228.204 220.893 228.158 221.076 228.062C221.382 228.535 221.781 228.941 222.248 229.257C222.715 229.573 223.241 229.791 223.794 229.899C224.899 230.119 226.037 230.106 227.137 229.862C231.724 229.012 234.636 225.019 238.229 222.05C238.723 221.638 251.402 214.552 257.895 210.965C258.969 210.366 259.814 209.427 260.298 208.296C260.782 207.166 260.877 205.907 260.569 204.716L256.432 188.618L243.891 191.93Z" fill="#FFA8A7"/>
<path d="M255.114 203.81C253.726 203.185 249.277 202.622 247.209 204.072L246.865 202.822C248.177 202.128 249.67 201.85 251.144 202.027C252.618 202.203 254.003 202.825 255.114 203.81Z" fill="#F28F8F"/>
<path d="M242.291 163.848L244.109 164.366C245.96 164.891 247.655 165.857 249.049 167.182C250.444 168.506 251.496 170.15 252.114 171.971L257.932 189.087C252.689 194.593 243.266 192.905 243.266 192.905L241.391 184.2C234.823 172.734 240.866 165.716 242.291 163.848Z" fill="#F88D74"/>
<path opacity="0.2" d="M242.291 163.848L244.109 164.366C245.96 164.891 247.655 165.857 249.049 167.182C250.444 168.506 251.496 170.15 252.114 171.971L257.932 189.087C252.689 194.593 243.266 192.905 243.266 192.905L241.391 184.2C234.823 172.734 240.866 165.716 242.291 163.848Z" fill="black"/>
<path d="M122.305 90.0475C121.88 88.5664 118.88 85.7607 115.893 85.8169C115.607 85.8274 115.325 85.8822 115.056 85.9794L57.0654 118.98C56.2184 119.471 55.514 120.174 55.0219 121.02C54.5299 121.866 54.2671 122.826 54.2596 123.804V249.265C54.2596 252.458 57.9403 255.514 61.4022 254.039C61.4777 254.014 61.5509 253.983 61.6209 253.945L119.63 220.894C120.48 220.41 121.188 219.709 121.679 218.863C122.171 218.017 122.43 217.055 122.43 216.076V90.6536C122.434 90.4447 122.392 90.2374 122.305 90.0475Z" fill="#37474F"/>
<path d="M62.3522 137.065C62.3512 136.575 62.4802 136.093 62.7261 135.669C62.9721 135.246 63.326 134.895 63.7519 134.653L117.605 104.033C117.817 103.912 118.056 103.849 118.299 103.85C118.542 103.851 118.78 103.916 118.99 104.038C119.2 104.16 119.374 104.336 119.496 104.546C119.617 104.757 119.68 104.996 119.68 105.239V206.384C119.679 206.874 119.549 207.355 119.304 207.778C119.058 208.202 118.705 208.553 118.28 208.797L64.4206 239.485C64.2097 239.604 63.9714 239.666 63.7293 239.664C63.4872 239.662 63.2498 239.597 63.0407 239.475C62.8315 239.353 62.658 239.179 62.5372 238.969C62.4164 238.759 62.3526 238.521 62.3522 238.279V137.065Z" fill="#F88D74"/>
<path opacity="0.2" d="M62.3522 137.065C62.3512 136.575 62.4802 136.093 62.7261 135.669C62.9721 135.246 63.326 134.895 63.7519 134.653L117.605 104.033C117.817 103.912 118.056 103.849 118.299 103.85C118.542 103.851 118.78 103.916 118.99 104.038C119.2 104.16 119.374 104.336 119.496 104.546C119.617 104.757 119.68 104.996 119.68 105.239V206.384C119.679 206.874 119.549 207.355 119.304 207.778C119.058 208.202 118.705 208.553 118.28 208.797L64.4206 239.485C64.2097 239.604 63.9714 239.666 63.7293 239.664C63.4872 239.662 63.2498 239.597 63.0407 239.475C62.8315 239.353 62.658 239.179 62.5372 238.969C62.4164 238.759 62.3526 238.521 62.3522 238.279V137.065Z" fill="black"/>
<path d="M54.2598 123.804V249.265C54.2598 252.458 57.9404 255.514 61.4023 254.039C61.1924 254.119 60.966 254.147 60.7428 254.12C60.5197 254.093 60.3065 254.012 60.1217 253.884C59.937 253.756 59.7863 253.585 59.6828 253.385C59.5793 253.186 59.526 252.964 59.5276 252.739V127.273C59.5282 126.179 59.8545 125.111 60.465 124.204L54.7847 121.367C54.4257 122.129 54.2461 122.963 54.2598 123.804Z" fill="#263238"/>
<path d="M115.9 85.8169C115.614 85.8274 115.331 85.8822 115.062 85.9794L57.0656 118.98C56.0993 119.534 55.3219 120.366 54.8347 121.367L60.515 124.204C60.9929 123.479 61.6352 122.878 62.3897 122.448L120.393 89.4475C120.558 89.3551 120.742 89.2979 120.931 89.2795C121.12 89.2611 121.31 89.2818 121.491 89.3405C121.672 89.3991 121.838 89.4944 121.98 89.6203C122.123 89.7463 122.237 89.9002 122.317 90.0724C121.886 88.5664 118.887 85.7607 115.9 85.8169Z" fill="#455A64"/>
<path d="M98.165 110.169C98.5711 109.932 98.9086 110.113 98.9086 110.582C98.8902 110.833 98.8135 111.077 98.6844 111.294C98.5553 111.511 98.3775 111.695 98.165 111.831L86.7856 118.405C86.3794 118.636 86.0545 118.443 86.0482 117.974C86.0644 117.722 86.1396 117.478 86.2677 117.261C86.3958 117.044 86.5732 116.86 86.7856 116.724L98.165 110.169Z" fill="#263238"/>
<path d="M83.8611 118.424C84.2672 118.187 84.5984 118.374 84.5984 118.843C84.5806 119.093 84.5053 119.336 84.3785 119.553C84.2518 119.77 84.0769 119.954 83.8673 120.093C83.4611 120.324 83.1237 120.136 83.1174 119.668C83.1381 119.417 83.2159 119.175 83.3448 118.959C83.4737 118.744 83.6503 118.561 83.8611 118.424Z" fill="#263238"/>
<path d="M91.1473 109.213C91.9596 108.738 92.6158 109.113 92.6158 110.05C92.591 110.562 92.4456 111.06 92.1914 111.504C91.9373 111.948 91.5816 112.326 91.1535 112.606C90.3411 113.075 89.6663 112.694 89.6663 111.756C89.6936 111.245 89.8421 110.748 90.0997 110.306C90.3572 109.864 90.7163 109.489 91.1473 109.213Z" fill="#263238"/>
<path d="M91.1474 227.318C92.8096 226.362 94.1469 227.125 94.1469 229.031C94.0961 230.072 93.7996 231.086 93.2815 231.991C92.7634 232.896 92.0385 233.665 91.1661 234.236C89.5102 235.192 88.1354 234.411 88.1292 232.505C88.1909 231.464 88.4963 230.453 89.0205 229.552C89.5448 228.651 90.2733 227.886 91.1474 227.318Z" fill="#263238"/>
<path d="M109.719 210.752L74.1813 211.221C74.1813 211.221 73.4752 219.745 73.0315 234.58L109.9 213.552C109.8 211.79 109.719 210.752 109.719 210.752Z" fill="#F88D74"/>
<path opacity="0.5" d="M109.719 210.752L74.1813 211.221C74.1813 211.221 73.4752 219.745 73.0315 234.58L109.9 213.552C109.8 211.79 109.719 210.752 109.719 210.752Z" fill="black"/>
<path d="M126.898 172.69L130.966 176.339L142.214 164.26C143.304 163.088 144.072 161.655 144.445 160.098L145.07 157.418C145.238 156.718 145.508 156.046 145.869 155.424C146.419 154.48 147.007 153.549 147.513 152.587C147.637 152.279 147.855 152.018 148.138 151.843C148.32 151.776 148.518 151.766 148.706 151.812C148.894 151.859 149.064 151.961 149.194 152.106C149.442 152.408 149.569 152.791 149.55 153.181C149.528 153.567 149.459 153.949 149.344 154.318L148.875 156.055C148.8 156.292 148.762 156.538 148.763 156.786C148.765 156.909 148.796 157.03 148.854 157.138C148.911 157.247 148.993 157.34 149.094 157.411C149.575 157.705 156.524 151.256 157.686 148.3C157.999 147.507 160.486 147.969 158.98 151.194C159.243 151.416 159.452 151.697 159.59 152.013C159.728 152.33 159.79 152.674 159.773 153.018C159.823 153.893 159.867 154.774 159.917 155.649C160 156.512 159.966 157.382 159.817 158.236C159.48 159.487 158.835 160.634 157.942 161.573C156.378 163.322 154.447 164.704 152.287 165.622C150.659 166.336 149.269 167.5 148.282 168.978L137.508 185.225C136.915 186.121 136.141 186.883 135.236 187.462C134.331 188.041 133.316 188.425 132.254 188.589C131.192 188.754 130.108 188.694 129.07 188.415C128.033 188.136 127.065 187.643 126.229 186.969L120.536 182.363L126.898 172.69Z" fill="#7D4A4A"/>
<path d="M107.388 157.549C112.919 157.23 114.362 160.123 117.862 163.379C121.361 166.635 127.923 172.965 127.923 172.965C127.669 175.16 126.865 177.255 125.586 179.056C124.307 180.857 122.594 182.307 120.605 183.269L108.432 174.29L107.388 157.549Z" fill="#F0F0F0"/>
<path d="M73.269 213.333C73.269 213.333 93.8905 220.876 110.619 211.459C110.619 211.459 109.6 199.461 109.3 192.474C109.001 185.488 111.413 171.978 111.8 168.366C112.188 164.754 111.675 158.48 107.426 157.53C99.5146 155.855 84.6421 157.53 84.6421 157.53L75.7686 167.341C71.9942 186.525 72.6316 206.647 73.269 213.333Z" fill="white"/>
<path d="M113.9 141.889C115.596 140.668 116.775 138.858 117.206 136.813C117.637 134.768 117.289 132.636 116.231 130.834C117.182 130.413 117.961 129.679 118.437 128.753C118.639 128.308 118.702 127.811 118.618 127.329C118.533 126.847 118.305 126.402 117.964 126.051C117.622 125.701 117.183 125.462 116.703 125.365C116.223 125.269 115.725 125.319 115.275 125.51C115.525 124.787 115.527 124.001 115.279 123.278C115.031 122.554 114.547 121.934 113.906 121.517C113.255 121.158 112.5 121.035 111.768 121.169C111.037 121.303 110.375 121.687 109.894 122.255C109.911 121.784 109.775 121.32 109.505 120.934C109.236 120.547 108.848 120.258 108.401 120.111C107.48 119.863 106.504 119.922 105.62 120.28C104.726 120.592 103.883 121.036 102.977 121.317C101.426 121.714 99.834 121.924 98.2337 121.942C96.6262 121.967 95.0509 122.397 93.6532 123.192C92.3159 124.06 91.1536 126.085 91.8535 127.835C91.6297 127.544 91.3469 127.305 91.0238 127.131C90.7007 126.958 90.3446 126.855 89.9788 126.829C89.6126 126.817 89.2483 126.885 88.9107 127.027C88.5731 127.17 88.2703 127.383 88.0229 127.654C89.0227 128.279 89.9851 128.941 90.9849 129.528C89.9788 129.078 88.4853 129.785 87.9417 130.747C87.4744 131.749 87.2886 132.859 87.4043 133.959C87.5315 138.132 88.2662 142.264 89.5851 146.226C90.2663 148.275 91.2536 150.45 93.197 151.4L113.9 141.889Z" fill="#263238"/>
<path d="M103.32 151.762L102.883 156.668C102.863 157.048 102.959 157.425 103.158 157.749C103.429 158.261 103.534 158.846 103.456 159.421C103.379 159.996 103.124 160.532 102.727 160.954C102.094 161.43 101.325 161.69 100.533 161.698C99.0353 161.78 97.537 161.545 96.1368 161.006C94.7366 160.467 93.4663 159.638 92.4096 158.574C92.1996 158.349 92.0363 158.084 91.929 157.796C91.8218 157.507 91.7727 157.2 91.7847 156.893L92.1034 144.457L103.32 151.762Z" fill="#7D4A4A"/>
<path d="M93.1095 145.095L103.333 151.762L102.945 156.136C100.565 155.58 98.1774 154.887 96.2965 153.368C95.1057 152.374 94.1881 151.092 93.6304 149.644C93.0728 148.197 92.8935 146.631 93.1095 145.095Z" fill="#663333"/>
<path d="M114.462 131.778C115.211 137.467 114.838 143.248 113.362 148.794C113.081 150.017 112.626 151.193 112.013 152.287C111.395 153.39 110.425 154.253 109.257 154.737C107.813 155.274 106.207 155.012 104.689 154.737C101.914 154.243 99.0647 153.731 96.6589 152.268C94.253 150.806 92.3346 148.175 92.5721 145.395C91.886 145.82 91.104 146.065 90.2981 146.109C89.4923 146.153 88.6883 145.993 87.9603 145.644C87.2525 145.252 86.6534 144.689 86.2171 144.008C85.7807 143.326 85.5208 142.546 85.4607 141.739C85.3483 140.17 86.2606 138.414 87.8041 138.102C88.2822 138.034 88.7694 138.069 89.2328 138.205C89.6962 138.341 90.1253 138.574 90.4912 138.889C91.2168 139.526 91.8481 140.262 92.3658 141.076C92.6019 141.47 92.9194 141.809 93.2969 142.07C93.4857 142.202 93.7104 142.272 93.9406 142.272C94.1708 142.272 94.3954 142.202 94.5842 142.07C94.7449 141.878 94.8613 141.653 94.925 141.411C94.9888 141.169 94.9983 140.916 94.9529 140.67L94.7904 137.108C94.7801 136.835 94.8488 136.565 94.9885 136.33C95.1282 136.095 95.3329 135.905 95.5778 135.784C96.313 135.383 96.8788 134.731 97.1713 133.946C97.4308 133.259 97.5825 132.536 97.6212 131.803C97.6328 131.666 97.6764 131.533 97.7486 131.416C97.8208 131.298 97.9195 131.199 98.0368 131.127C98.1541 131.055 98.2867 131.011 98.424 130.999C98.5613 130.988 98.6994 131.008 98.8273 131.059C103.576 132.959 109.538 133.047 114.462 131.778Z" fill="#7D4A4A"/>
<path d="M106.632 140.414L109.832 145.807L106.02 146.519L106.632 140.414Z" fill="#663333"/>
<path d="M102.339 148.382L105.239 149.788C104.992 150.12 104.643 150.361 104.245 150.474C103.847 150.587 103.423 150.566 103.039 150.412C102.707 150.205 102.457 149.891 102.329 149.521C102.202 149.151 102.205 148.749 102.339 148.382Z" fill="#663333"/>
<path opacity="0.4" d="M102.339 148.382L105.239 149.788C104.992 150.12 104.643 150.361 104.245 150.474C103.847 150.587 103.423 150.566 103.039 150.412C102.707 150.205 102.457 149.891 102.329 149.521C102.202 149.151 102.205 148.749 102.339 148.382Z" fill="black"/>
<path d="M104.045 150.506C103.708 150.577 103.357 150.545 103.039 150.413C102.773 150.264 102.557 150.04 102.419 149.768C102.281 149.497 102.227 149.19 102.264 148.888C102.712 148.879 103.146 149.041 103.477 149.342C103.808 149.643 104.012 150.06 104.045 150.506Z" fill="#663333"/>
<path d="M101.108 140.602C101.087 140.817 101.13 141.033 101.232 141.224C101.334 141.414 101.49 141.57 101.68 141.672C101.871 141.774 102.087 141.818 102.302 141.797C102.517 141.776 102.721 141.692 102.889 141.555C103.056 141.418 103.179 141.235 103.242 141.028C103.305 140.822 103.306 140.601 103.244 140.394C103.182 140.187 103.06 140.003 102.893 139.865C102.726 139.728 102.523 139.643 102.308 139.621C102.165 139.606 102.02 139.62 101.882 139.661C101.744 139.702 101.616 139.771 101.504 139.862C101.393 139.953 101.3 140.065 101.232 140.192C101.164 140.319 101.122 140.458 101.108 140.602Z" fill="#263238"/>
<path d="M110.3 141.226C110.279 141.441 110.322 141.658 110.424 141.849C110.526 142.039 110.682 142.195 110.873 142.297C111.063 142.399 111.28 142.443 111.495 142.422C111.71 142.401 111.914 142.317 112.081 142.18C112.248 142.043 112.371 141.86 112.434 141.653C112.498 141.446 112.498 141.226 112.436 141.019C112.374 140.812 112.252 140.628 112.085 140.49C111.919 140.353 111.715 140.267 111.5 140.245C111.357 140.231 111.212 140.244 111.074 140.286C110.936 140.327 110.808 140.395 110.696 140.487C110.585 140.578 110.493 140.69 110.425 140.817C110.357 140.944 110.314 141.083 110.3 141.226Z" fill="#263238"/>
<path d="M111.8 136.965L114.05 138.883C114.183 138.593 114.226 138.27 114.173 137.955C114.119 137.641 113.972 137.35 113.75 137.121C113.471 136.918 113.141 136.796 112.797 136.768C112.453 136.741 112.108 136.809 111.8 136.965Z" fill="#263238"/>
<path d="M102.483 135.89L99.8959 137.321C99.8189 137.013 99.8375 136.689 99.9492 136.392C100.061 136.095 100.26 135.839 100.521 135.659C100.837 135.511 101.188 135.454 101.535 135.495C101.881 135.536 102.21 135.672 102.483 135.89Z" fill="#263238"/>
<path d="M94.5655 183.269L100.121 195.955L117.824 210.515C118.738 211.285 119.904 211.69 121.099 211.652C122.415 211.563 123.738 211.639 125.035 211.877C126.042 212.108 127.023 212.44 128.029 212.671C128.737 212.844 129.462 212.934 130.191 212.94C130.339 212.932 130.486 212.963 130.619 213.029C130.752 213.094 130.866 213.193 130.95 213.315C131.033 213.437 131.085 213.579 131.099 213.726C131.112 213.874 131.088 214.023 131.028 214.158C130.92 214.378 130.772 214.575 130.591 214.739C130.051 215.163 129.4 215.419 128.716 215.477C127.642 215.62 126.551 215.563 125.498 215.308C126.429 216.52 127.997 217.283 129.46 217.77C130.922 218.257 132.422 218.526 133.834 219.02C134.388 219.164 134.882 219.479 135.246 219.92C135.419 220.144 135.497 220.427 135.465 220.708C135.432 220.989 135.291 221.247 135.071 221.426C134.446 221.813 133.609 221.244 132.934 221.513C133.018 221.902 133.018 222.305 132.934 222.694C132.82 223.09 132.564 223.43 132.215 223.65C132.041 223.758 131.842 223.819 131.637 223.827C131.432 223.835 131.229 223.789 131.047 223.694C130.738 224.166 130.337 224.571 129.869 224.887C129.402 225.202 128.876 225.421 128.322 225.531C127.217 225.745 126.079 225.73 124.979 225.487C120.392 224.644 117.48 220.651 113.894 217.676C113.375 217.251 99.4647 209.59 93.172 206.134C91.1982 205.049 89.6188 203.367 88.6602 201.329L81.8864 186.956L94.5655 183.269Z" fill="#7D4A4A"/>
<path d="M84.6046 157.549C90.5599 164.585 92.7845 176.67 95.8528 184.419C92.4221 190.931 82.8362 190.293 82.8362 190.293C74.0751 172.059 70.3695 158.286 84.6046 157.549Z" fill="#F0F0F0"/>
<path d="M130.966 176.339C129.785 179.201 130.735 183.019 130.735 183.019C129.967 181.893 129.477 180.601 129.305 179.248C129.134 177.896 129.285 176.522 129.747 175.239L130.966 176.339Z" fill="#663333"/>
<path d="M149.706 158.255C150.21 159.205 150.346 160.308 150.088 161.353C149.829 162.397 149.195 163.31 148.307 163.916C148.942 163.877 149.552 163.646 150.054 163.255C150.557 162.863 150.93 162.33 151.125 161.723C151.245 161.07 151.175 160.396 150.923 159.781C150.672 159.167 150.25 158.637 149.706 158.255Z" fill="#663333"/>
<path d="M62.4523 240.86L52.7539 241.147L43.0555 240.86C42.6431 247.409 43.9179 254.083 45.6801 257.345C46.0972 258.183 46.7687 258.867 47.5985 259.3C50.4605 260.95 55.0972 260.95 57.928 259.3C58.772 258.863 59.4467 258.157 59.8465 257.295C61.6024 254.014 62.8647 247.377 62.4523 240.86Z" fill="white"/>
<path d="M59.584 236.892C63.3834 239.085 63.4084 242.641 59.634 244.834C55.8597 247.028 49.7169 247.028 45.8863 244.834C42.0557 242.641 42.0682 239.085 45.8426 236.892C49.617 234.698 55.7909 234.698 59.584 236.892Z" fill="#EBEBEB"/>
<path d="M58.1154 237.767C61.0774 239.479 61.0962 242.247 58.1529 243.959C55.2097 245.672 50.4167 245.672 47.4547 243.959C44.4927 242.247 44.474 239.479 47.4172 237.767C50.3605 236.054 55.1222 236.054 58.1154 237.767Z" fill="#C4C4C4"/>
<g opacity="0.15">
<path opacity="0.15" d="M58.1154 237.767C61.0774 239.479 61.0962 242.247 58.1529 243.959C55.2097 245.672 50.4167 245.672 47.4547 243.959C44.4927 242.247 44.474 239.479 47.4172 237.767C50.3605 236.054 55.1222 236.054 58.1154 237.767Z" fill="black"/>
</g>
<path d="M47.8108 221.019C46.2298 219.063 44.3989 217.308 42.9554 215.245C41.968 213.839 41.1432 212.121 41.5556 210.459C41.7849 209.691 42.2252 209.004 42.8263 208.475C43.4273 207.945 44.1649 207.596 44.9551 207.465C46.5464 207.231 48.1683 207.591 49.5105 208.478C50.8362 209.368 52.0005 210.477 52.9537 211.758C58.4156 218.677 60.9966 227.436 60.1588 236.211C60.1379 237.215 59.8253 238.192 59.2589 239.023C58.9102 239.431 58.4518 239.731 57.938 239.887C57.4242 240.043 56.8764 240.049 56.3594 239.904C53.7161 239.123 54.066 235.529 53.6349 233.455C52.704 228.913 50.7079 224.658 47.8108 221.038V221.019Z" fill="#F88D74"/>
<path opacity="0.2" d="M47.8108 221.019C46.2298 219.063 44.3989 217.308 42.9554 215.245C41.968 213.839 41.1432 212.121 41.5556 210.459C41.7849 209.691 42.2252 209.004 42.8263 208.475C43.4273 207.945 44.1649 207.596 44.9551 207.465C46.5464 207.231 48.1683 207.591 49.5105 208.478C50.8362 209.368 52.0005 210.477 52.9537 211.758C58.4156 218.677 60.9966 227.436 60.1588 236.211C60.1379 237.215 59.8253 238.192 59.2589 239.023C58.9102 239.431 58.4518 239.731 57.938 239.887C57.4242 240.043 56.8764 240.049 56.3594 239.904C53.7161 239.123 54.066 235.529 53.6349 233.455C52.704 228.913 50.7079 224.658 47.8108 221.038V221.019Z" fill="white"/>
<path d="M56.5218 237.229C56.4704 237.219 56.4239 237.192 56.3899 237.153C56.3558 237.113 56.3363 237.063 56.3344 237.01C56.1531 232.774 54.7721 218.301 44.7988 210.09C44.7575 210.046 44.7345 209.988 44.7345 209.927C44.7345 209.867 44.7575 209.809 44.7988 209.765C44.8378 209.718 44.8939 209.688 44.9548 209.682C45.0157 209.676 45.0765 209.695 45.1237 209.734C55.247 218.064 56.6406 232.705 56.828 236.992C56.8298 237.053 56.8081 237.112 56.7674 237.157C56.7267 237.203 56.6701 237.231 56.6093 237.235L56.5218 237.229Z" fill="#F0F0F0"/>
<path d="M57.9779 237.685C57.7683 238.614 57.3735 239.49 56.8174 240.262C56.2612 241.034 55.5549 241.686 54.7409 242.178C53.2157 242.901 51.5192 243.185 49.8418 242.997C48.1343 242.807 46.4558 242.413 44.8426 241.822C44.0427 241.547 43.1554 241.197 43.0679 240.198C43.0543 239.938 43.0983 239.678 43.1966 239.437C43.2949 239.196 43.4451 238.98 43.6365 238.804C43.7971 238.645 43.9683 238.496 44.149 238.36C44.2315 238.298 44.2931 238.211 44.3255 238.113C44.3579 238.014 44.3597 237.908 44.3306 237.809C44.3015 237.709 44.2428 237.621 44.1624 237.555C44.082 237.49 43.9836 237.45 43.8803 237.442C43.4047 237.408 42.9312 237.35 42.4617 237.267C41.3675 237.084 40.34 236.619 39.481 235.917C38.8631 235.363 38.3946 234.662 38.1187 233.88C37.9616 233.562 37.8965 233.206 37.9307 232.852C37.9649 232.499 38.0971 232.162 38.3124 231.88C38.627 231.621 39.0082 231.457 39.4122 231.405C39.7684 231.324 40.1246 231.261 40.4808 231.205C40.5827 231.189 40.6766 231.141 40.7483 231.066C40.8201 230.992 40.8658 230.897 40.8785 230.795C40.8912 230.692 40.8702 230.589 40.8188 230.499C40.7673 230.41 40.6882 230.34 40.5933 230.299L39.0873 229.674C38.6557 229.533 38.2638 229.291 37.9437 228.968C37.7486 228.664 37.6219 228.321 37.5722 227.962C37.5226 227.604 37.5513 227.239 37.6563 226.893C37.8375 225.95 38.1625 225.019 38.3874 224.113C38.6481 223.184 38.6823 222.207 38.4874 221.263C41.3064 220.949 44.1588 221.139 46.911 221.826C47.7395 221.996 48.523 222.339 49.2106 222.832C49.6437 223.216 49.9707 223.705 50.16 224.252C50.3494 224.8 50.3947 225.386 50.2917 225.956C50.2891 226.006 50.3036 226.055 50.3328 226.096C50.3621 226.136 50.4044 226.166 50.4525 226.179C50.5007 226.192 50.552 226.188 50.5978 226.168C50.6435 226.148 50.6811 226.113 50.7041 226.069L51.6665 224.294C51.8081 224.039 52.0415 223.849 52.3191 223.76C52.5966 223.672 52.8974 223.693 53.16 223.819C54.0019 224.24 54.7484 224.829 55.3533 225.55C55.6912 225.931 55.9488 226.377 56.1109 226.86C56.273 227.343 56.3363 227.854 56.2969 228.362C56.1841 229.745 55.9562 231.116 55.6158 232.461C55.5874 232.542 55.5872 232.631 55.6152 232.712C55.6432 232.793 55.6977 232.862 55.7701 232.908C55.8424 232.955 55.9282 232.975 56.0136 232.967C56.099 232.958 56.179 232.921 56.2407 232.861H56.2907C56.5498 232.664 56.8727 232.571 57.1968 232.599C58.0466 232.705 58.2654 233.567 58.3216 234.298C58.3464 235.437 58.231 236.575 57.9779 237.685Z" fill="#F88D74"/>
<path opacity="0.2" d="M57.9779 237.685C57.7683 238.614 57.3735 239.49 56.8174 240.262C56.2612 241.034 55.5549 241.686 54.7409 242.178C53.2157 242.901 51.5192 243.185 49.8418 242.997C48.1343 242.807 46.4558 242.413 44.8426 241.822C44.0427 241.547 43.1554 241.197 43.0679 240.198C43.0543 239.938 43.0983 239.678 43.1966 239.437C43.2949 239.196 43.4451 238.98 43.6365 238.804C43.7971 238.645 43.9683 238.496 44.149 238.36C44.2315 238.298 44.2931 238.211 44.3255 238.113C44.3579 238.014 44.3597 237.908 44.3306 237.809C44.3015 237.709 44.2428 237.621 44.1624 237.555C44.082 237.49 43.9836 237.45 43.8803 237.442C43.4047 237.408 42.9312 237.35 42.4617 237.267C41.3675 237.084 40.34 236.619 39.481 235.917C38.8631 235.363 38.3946 234.662 38.1187 233.88C37.9616 233.562 37.8965 233.206 37.9307 232.852C37.9649 232.499 38.0971 232.162 38.3124 231.88C38.627 231.621 39.0082 231.457 39.4122 231.405C39.7684 231.324 40.1246 231.261 40.4808 231.205C40.5827 231.189 40.6766 231.141 40.7483 231.066C40.8201 230.992 40.8658 230.897 40.8785 230.795C40.8912 230.692 40.8702 230.589 40.8188 230.499C40.7673 230.41 40.6882 230.34 40.5933 230.299L39.0873 229.674C38.6557 229.533 38.2638 229.291 37.9437 228.968C37.7486 228.664 37.6219 228.321 37.5722 227.962C37.5226 227.604 37.5513 227.239 37.6563 226.893C37.8375 225.95 38.1625 225.019 38.3874 224.113C38.6481 223.184 38.6823 222.207 38.4874 221.263C41.3064 220.949 44.1588 221.139 46.911 221.826C47.7395 221.996 48.523 222.339 49.2106 222.832C49.6437 223.216 49.9707 223.705 50.16 224.252C50.3494 224.8 50.3947 225.386 50.2917 225.956C50.2891 226.006 50.3036 226.055 50.3328 226.096C50.3621 226.136 50.4044 226.166 50.4525 226.179C50.5007 226.192 50.552 226.188 50.5978 226.168C50.6435 226.148 50.6811 226.113 50.7041 226.069L51.6665 224.294C51.8081 224.039 52.0415 223.849 52.3191 223.76C52.5966 223.672 52.8974 223.693 53.16 223.819C54.0019 224.24 54.7484 224.829 55.3533 225.55C55.6912 225.931 55.9488 226.377 56.1109 226.86C56.273 227.343 56.3363 227.854 56.2969 228.362C56.1841 229.745 55.9562 231.116 55.6158 232.461C55.5874 232.542 55.5872 232.631 55.6152 232.712C55.6432 232.793 55.6977 232.862 55.7701 232.908C55.8424 232.955 55.9282 232.975 56.0136 232.967C56.099 232.958 56.179 232.921 56.2407 232.861H56.2907C56.5498 232.664 56.8727 232.571 57.1968 232.599C58.0466 232.705 58.2654 233.567 58.3216 234.298C58.3464 235.437 58.231 236.575 57.9779 237.685Z" fill="black"/>
<path opacity="0.2" d="M57.9779 237.685C57.7683 238.614 57.3735 239.49 56.8174 240.262C56.2612 241.034 55.5549 241.686 54.7409 242.178C53.2157 242.901 51.5192 243.185 49.8418 242.997C48.1343 242.807 46.4558 242.413 44.8426 241.822C44.0427 241.547 43.1554 241.197 43.0679 240.198C43.0543 239.938 43.0983 239.678 43.1966 239.437C43.2949 239.196 43.4451 238.98 43.6365 238.804C43.7971 238.645 43.9683 238.496 44.149 238.36C44.2315 238.298 44.2931 238.211 44.3255 238.113C44.3579 238.014 44.3597 237.908 44.3306 237.809C44.3015 237.709 44.2428 237.621 44.1624 237.555C44.082 237.49 43.9836 237.45 43.8803 237.442C43.4047 237.408 42.9312 237.35 42.4617 237.267C41.3675 237.084 40.34 236.619 39.481 235.917C38.8631 235.363 38.3946 234.662 38.1187 233.88C37.9616 233.562 37.8965 233.206 37.9307 232.852C37.9649 232.499 38.0971 232.162 38.3124 231.88C38.627 231.621 39.0082 231.457 39.4122 231.405C39.7684 231.324 40.1246 231.261 40.4808 231.205C40.5827 231.189 40.6766 231.141 40.7483 231.066C40.8201 230.992 40.8658 230.897 40.8785 230.795C40.8912 230.692 40.8702 230.589 40.8188 230.499C40.7673 230.41 40.6882 230.34 40.5933 230.299L39.0873 229.674C38.6557 229.533 38.2638 229.291 37.9437 228.968C37.7486 228.664 37.6219 228.321 37.5722 227.962C37.5226 227.604 37.5513 227.239 37.6563 226.893C37.8375 225.95 38.1625 225.019 38.3874 224.113C38.6481 223.184 38.6823 222.207 38.4874 221.263C41.3064 220.949 44.1588 221.139 46.911 221.826C47.7395 221.996 48.523 222.339 49.2106 222.832C49.6437 223.216 49.9707 223.705 50.16 224.252C50.3494 224.8 50.3947 225.386 50.2917 225.956C50.2891 226.006 50.3036 226.055 50.3328 226.096C50.3621 226.136 50.4044 226.166 50.4525 226.179C50.5007 226.192 50.552 226.188 50.5978 226.168C50.6435 226.148 50.6811 226.113 50.7041 226.069L51.6665 224.294C51.8081 224.039 52.0415 223.849 52.3191 223.76C52.5966 223.672 52.8974 223.693 53.16 223.819C54.0019 224.24 54.7484 224.829 55.3533 225.55C55.6912 225.931 55.9488 226.377 56.1109 226.86C56.273 227.343 56.3363 227.854 56.2969 228.362C56.1841 229.745 55.9562 231.116 55.6158 232.461C55.5874 232.542 55.5872 232.631 55.6152 232.712C55.6432 232.793 55.6977 232.862 55.7701 232.908C55.8424 232.955 55.9282 232.975 56.0136 232.967C56.099 232.958 56.179 232.921 56.2407 232.861H56.2907C56.5498 232.664 56.8727 232.571 57.1968 232.599C58.0466 232.705 58.2654 233.567 58.3216 234.298C58.3464 235.437 58.231 236.575 57.9779 237.685Z" fill="white"/>
<path d="M53.5101 241.947C52.985 239.685 52.2247 237.484 51.2417 235.38C51.2408 235.346 51.2331 235.314 51.2191 235.284C51.2052 235.254 51.1852 235.227 51.1605 235.205C51.1105 235.092 51.0542 234.98 51.0042 234.861C51.2812 232.244 52.0419 229.701 53.2476 227.362C53.263 227.336 53.2729 227.307 53.2769 227.277C53.2808 227.247 53.2786 227.216 53.2704 227.187C53.2622 227.158 53.2483 227.131 53.2293 227.107C53.2104 227.084 53.1868 227.064 53.1601 227.05C53.1077 227.02 53.0457 227.012 52.9874 227.027C52.929 227.042 52.8789 227.079 52.8477 227.131C51.7111 229.311 50.9565 231.67 50.6168 234.105C48.4105 229.478 45.0831 225.477 40.9372 222.463C40.8868 222.43 40.8259 222.418 40.7667 222.428C40.7076 222.439 40.6546 222.471 40.6185 222.519C40.6006 222.544 40.5878 222.572 40.5809 222.602C40.5741 222.632 40.5732 222.663 40.5785 222.693C40.5837 222.724 40.5949 222.753 40.6114 222.778C40.6279 222.804 40.6495 222.827 40.6747 222.844C45.5489 226.231 48.6234 230.937 50.4918 234.836C47.9763 233.698 45.1831 233.32 42.4557 233.749C42.4258 233.754 42.3974 233.765 42.372 233.781C42.3466 233.798 42.3248 233.819 42.3079 233.844C42.291 233.869 42.2793 233.898 42.2735 233.927C42.2678 233.957 42.2681 233.988 42.2744 234.017C42.2823 234.063 42.3038 234.106 42.3361 234.139C42.3684 234.172 42.4101 234.195 42.4557 234.205H42.5431C42.5869 234.205 46.9986 233.392 50.8105 235.523C51.7802 237.609 52.534 239.789 53.0601 242.028C53.0683 242.074 53.09 242.115 53.1224 242.147C53.1548 242.18 53.1963 242.202 53.2414 242.21H53.3288C53.358 242.204 53.3858 242.193 53.4108 242.177C53.4357 242.161 53.4572 242.141 53.474 242.116C53.4908 242.092 53.5027 242.064 53.5089 242.035C53.5151 242.006 53.5155 241.976 53.5101 241.947Z" fill="#F0F0F0"/>
</svg>
