<svg width="68" height="68" viewBox="0 0 68 68" fill="none" xmlns="http://www.w3.org/2000/svg">
<g filter="url(#filter0_d_186_5801)">
<rect x="10" y="10" width="48" height="48" rx="24" fill="#455A64"/>
<path d="M34 10C40.3652 10 46.4697 12.5286 50.9706 17.0294C55.4714 21.5303 58 27.6348 58 34C58 40.3652 55.4714 46.4697 50.9706 50.9706C46.4697 55.4714 40.3652 58 34 58C27.6348 58 21.5303 55.4714 17.0294 50.9706C12.5286 46.4697 10 40.3652 10 34C10 27.6348 12.5286 21.5303 17.0294 17.0294C21.5303 12.5286 27.6348 10 34 10ZM23.5 32.5C23.1022 32.5 22.7206 32.658 22.4393 32.9393C22.158 33.2206 22 33.6022 22 34C22 34.3978 22.158 34.7794 22.4393 35.0607C22.7206 35.342 23.1022 35.5 23.5 35.5L40.879 35.5L34.438 41.938C34.1563 42.2197 33.9981 42.6017 33.9981 43C33.9981 43.3983 34.1563 43.7803 34.438 44.062C34.7197 44.3437 35.1017 44.5019 35.5 44.5019C35.8983 44.5019 36.2803 44.3437 36.562 44.062L45.562 35.062C45.7017 34.9227 45.8125 34.7571 45.8881 34.5749C45.9638 34.3927 46.0027 34.1973 46.0027 34C46.0027 33.8027 45.9638 33.6073 45.8881 33.4251C45.8125 33.2429 45.7017 33.0773 45.562 32.938L36.562 23.938C36.2803 23.6563 35.8983 23.4981 35.5 23.4981C35.1017 23.4981 34.7197 23.6563 34.438 23.938C34.1563 24.2197 33.9981 24.6017 33.9981 25C33.9981 25.3983 34.1563 25.7803 34.438 26.062L40.879 32.5L23.5 32.5Z" fill="#F88D74"/>
</g>
<defs>
<filter id="filter0_d_186_5801" x="6" y="10" width="56" height="56" filterUnits="userSpaceOnUse" color-interpolation-filters="sRGB">
<feFlood flood-opacity="0" result="BackgroundImageFix"/>
<feColorMatrix in="SourceAlpha" type="matrix" values="0 0 0 0 0 0 0 0 0 0 0 0 0 0 0 0 0 0 127 0" result="hardAlpha"/>
<feOffset dy="4"/>
<feGaussianBlur stdDeviation="2"/>
<feComposite in2="hardAlpha" operator="out"/>
<feColorMatrix type="matrix" values="0 0 0 0 0 0 0 0 0 0 0 0 0 0 0 0 0 0 0.25 0"/>
<feBlend mode="normal" in2="BackgroundImageFix" result="effect1_dropShadow_186_5801"/>
<feBlend mode="normal" in="SourceGraphic" in2="effect1_dropShadow_186_5801" result="shape"/>
</filter>
</defs>
</svg>
