<svg width="56" height="56" viewBox="0 0 56 56" fill="none" xmlns="http://www.w3.org/2000/svg">
<g filter="url(#filter0_d_279_92)">
<rect x="4" width="48" height="48" rx="24" fill="#455A64"/>
<path fill-rule="evenodd" clip-rule="evenodd" d="M28 0C14.7455 0 4 10.7455 4 24C4 37.2545 14.7455 48 28 48C41.2545 48 52 37.2545 52 24C52 10.7455 41.2545 0 28 0ZM38.4029 19.9418C38.5945 19.7229 38.7403 19.4678 38.8318 19.1916C38.9234 18.9155 38.9587 18.6238 38.9359 18.3338C38.913 18.0438 38.8324 17.7612 38.6987 17.5028C38.565 17.2444 38.3811 17.0154 38.1576 16.8291C37.9341 16.6429 37.6756 16.5032 37.3973 16.4183C37.119 16.3334 36.8266 16.3051 36.5372 16.3349C36.2478 16.3647 35.9673 16.4521 35.7122 16.5919C35.4571 16.7318 35.2325 16.9212 35.0516 17.1491L25.6698 28.4051L20.8153 23.5484C20.4038 23.1509 19.8526 22.931 19.2806 22.936C18.7085 22.941 18.1613 23.1704 17.7568 23.5749C17.3522 23.9795 17.1228 24.5267 17.1178 25.0988C17.1128 25.6708 17.3327 26.222 17.7302 26.6335L24.2756 33.1789C24.49 33.3932 24.7467 33.5604 25.0293 33.67C25.3119 33.7795 25.6142 33.829 25.917 33.8152C26.2197 33.8015 26.5163 33.7248 26.7878 33.5901C27.0593 33.4553 27.2997 33.2655 27.4938 33.0327L38.4029 19.9418Z" fill="#F88D74"/>
</g>
<defs>
<filter id="filter0_d_279_92" x="0" y="0" width="56" height="56" filterUnits="userSpaceOnUse" color-interpolation-filters="sRGB">
<feFlood flood-opacity="0" result="BackgroundImageFix"/>
<feColorMatrix in="SourceAlpha" type="matrix" values="0 0 0 0 0 0 0 0 0 0 0 0 0 0 0 0 0 0 127 0" result="hardAlpha"/>
<feOffset dy="4"/>
<feGaussianBlur stdDeviation="2"/>
<feComposite in2="hardAlpha" operator="out"/>
<feColorMatrix type="matrix" values="0 0 0 0 0 0 0 0 0 0 0 0 0 0 0 0 0 0 0.25 0"/>
<feBlend mode="normal" in2="BackgroundImageFix" result="effect1_dropShadow_279_92"/>
<feBlend mode="normal" in="SourceGraphic" in2="effect1_dropShadow_279_92" result="shape"/>
</filter>
</defs>
</svg>
