<svg width="33" height="33" viewBox="0 0 33 33" fill="none" xmlns="http://www.w3.org/2000/svg">
<path d="M8.30479 24.2344C8.36924 24.2344 8.43369 24.2279 8.49815 24.2183L13.9187 23.2676C13.9831 23.2547 14.0443 23.2257 14.0895 23.1773L27.7503 9.5165C27.7802 9.48669 27.8039 9.45128 27.82 9.41229C27.8362 9.37331 27.8445 9.33151 27.8445 9.28931C27.8445 9.2471 27.8362 9.20531 27.82 9.16632C27.8039 9.12734 27.7802 9.09192 27.7503 9.06211L22.3942 3.70283C22.333 3.6416 22.2524 3.60938 22.1654 3.60938C22.0784 3.60938 21.9979 3.6416 21.9366 3.70283L8.27578 17.3637C8.22744 17.412 8.19844 17.47 8.18555 17.5345L7.23486 22.955C7.20351 23.1276 7.21471 23.3053 7.2675 23.4726C7.32028 23.64 7.41306 23.7919 7.53779 23.9153C7.75049 24.1216 8.01797 24.2344 8.30479 24.2344ZM10.4769 18.6141L22.1654 6.92871L24.5276 9.29092L12.8391 20.9763L9.97412 21.4822L10.4769 18.6141ZM28.3594 26.9414H4.64062C4.07021 26.9414 3.60938 27.4022 3.60938 27.9727V29.1328C3.60938 29.2746 3.72539 29.3906 3.86719 29.3906H29.1328C29.2746 29.3906 29.3906 29.2746 29.3906 29.1328V27.9727C29.3906 27.4022 28.9298 26.9414 28.3594 26.9414Z" fill="#455A64"/>
</svg>
