<svg width="269" height="292" viewBox="0 0 269 292" fill="none" xmlns="http://www.w3.org/2000/svg">
<path d="M254.666 91.1465C254.666 91.1465 212.645 40.8543 147.553 29.3215C82.4607 17.7887 69.6878 66.8093 47.8561 95.6476C26.0244 124.486 1.29695 135.213 0.0630976 176.811C-1.17076 218.41 15.7192 239.845 48.2653 254.677C80.8114 269.508 114.182 277.339 146.728 281.865C179.274 286.392 205.229 283.924 218.002 257.144C230.775 230.365 225.003 218.007 239.834 205.234C254.666 192.461 288.036 134.376 254.666 91.1465Z" fill="white"/>
<path d="M136.117 276.225L137.3 279.675C137.3 279.675 147.542 285.857 147.687 287.487C147.771 288.498 147.62 289.515 147.246 290.458H121.279C121.279 290.458 120.649 286.423 121.367 283.156C122.085 279.889 121.871 278.711 121.871 278.711L136.117 276.225Z" fill="white" stroke="#263238" stroke-miterlimit="10"/>
<path d="M121.077 288.595C121.153 289.715 121.279 290.483 121.279 290.483H147.246C147.503 289.818 147.656 289.118 147.7 288.406L121.077 288.595Z" fill="white" stroke="#263238" stroke-miterlimit="10"/>
<path d="M141.789 150.164L136.029 174.029L140.718 180.003C140.718 180.003 150.942 161.747 151.748 160.123C152.553 158.499 155.348 156.012 151.71 147.023C149.821 142.433 148.449 141.036 148.449 141.036" fill="#F88D74"/>
<path d="M141.789 150.164L136.029 174.029L140.718 180.003C140.718 180.003 150.942 161.747 151.748 160.123C152.553 158.499 155.348 156.012 151.71 147.023C149.821 142.433 148.449 141.036 148.449 141.036" stroke="#263238" stroke-miterlimit="10"/>
<path d="M136.028 174.029L133.12 176.132C133.12 176.132 129.242 182.918 129.727 183.887C130.04 184.481 130.556 184.941 131.181 185.184L133.447 187.513C133.447 187.513 135.707 188.413 136.998 187.771C138.288 187.129 140.718 180.009 140.718 180.009L136.028 174.029Z" fill="#A3A3A3" stroke="#263238" stroke-miterlimit="10"/>
<path d="M89.3748 176.528C89.3748 176.528 88.4872 181.13 88.0403 184.082C87.5933 187.035 92.982 228.778 92.982 231.133C92.982 233.487 92.0881 240.342 91.8111 244.057C91.5341 247.771 92.8057 268.092 92.8057 268.092L93.1079 274.62C93.1079 274.62 97.9992 276.697 102.009 275.809C106.019 274.922 108.682 273.877 108.833 273.436C108.984 272.995 108.833 265.252 108.833 265.252C108.833 265.252 109.425 238.813 110.023 236.175C110.621 233.537 113.58 202.773 113.58 202.773C113.58 202.773 116.4 240.028 116.551 240.475C116.702 240.922 116.4 241.664 116.696 249.376C116.992 257.088 120.851 277.075 120.851 277.075C120.851 277.075 125.006 277.666 127.675 276.924C130.344 276.181 135.229 274.255 135.393 273.663C135.67 271.696 135.819 269.713 135.84 267.726C135.84 265.8 134.058 259.757 134.058 258.284C134.058 256.811 133.907 216.572 134.203 209.748C134.499 202.924 133.164 181.703 133.164 180.664C133.164 179.625 132.717 167.218 132.717 167.218C132.717 167.218 128.814 175.678 117.539 173.45C106.265 171.221 91.2382 166.405 91.2382 166.405L89.3748 176.528Z" fill="#263238" stroke="#263238" stroke-miterlimit="10"/>
<path d="M109.11 110.97L97.5397 113.935L102.337 174.281C107.884 176.296 113.813 177.038 119.686 176.453C129.186 175.414 132.969 170.214 132.969 170.214C132.969 170.214 129.884 115.717 128.846 113.639C127.807 111.562 121.575 110.523 120.385 110.082C119.195 109.642 109.11 110.97 109.11 110.97Z" fill="white" stroke="#263238" stroke-miterlimit="10"/>
<path d="M106.92 101.175C106.92 101.175 107.958 110.97 107.958 113.047C107.958 115.125 107.511 118.084 111.515 120.91C115.519 123.737 121.159 123.283 122.941 118.984C124.722 114.684 123.684 102.811 123.684 102.811C122.865 103.814 121.81 104.596 120.613 105.088C119.416 105.579 118.115 105.764 116.828 105.625C112.377 105.185 106.92 101.175 106.92 101.175Z" fill="#A3A3A3" stroke="#263238" stroke-miterlimit="10"/>
<path d="M116.828 105.626C113.378 105.279 109.318 102.799 107.656 101.704L106.92 101.534C107.102 103.296 107.92 111.203 107.92 113.048C107.92 113.325 107.92 113.614 107.92 113.916C111.136 113.713 114.232 112.623 116.866 110.769C121.48 107.451 122.45 104.725 122.45 104.725L119.346 105.481C118.52 105.661 117.67 105.709 116.828 105.626Z" fill="#263238" stroke="#263238" stroke-miterlimit="10"/>
<path d="M127.36 87.0294C127.36 87.0294 130.331 85.8459 130.476 88.6599C130.621 91.4738 126.919 95.4902 126.919 95.4902L127.36 87.0294Z" fill="#A3A3A3" stroke="#263238" stroke-miterlimit="10"/>
<path d="M108.808 67.59C108.808 67.59 102.129 70.7376 101.09 75.6038C100.051 80.47 102.727 88.9622 102.727 88.9622C102.727 88.9622 100.051 87.3254 99.3148 90.0009C98.5782 92.6763 100.498 95.4903 101.688 95.931C102.501 96.1941 103.368 96.2461 104.206 96.082L106.919 102.163C106.919 102.163 115.525 108.1 118.49 107.508C121.455 106.916 125.018 102.761 126.353 100.98C127.687 99.1982 127.989 81.2443 128.134 78.871C128.279 76.4977 127.246 71.3168 123.835 68.9309C120.423 66.545 112.226 65.072 108.808 67.59Z" fill="#A3A3A3" stroke="#263238" stroke-miterlimit="10"/>
<path d="M123.803 68.9308C120.385 66.5512 112.226 65.0718 108.814 67.5899C108.814 67.5899 102.135 70.7375 101.096 75.6037C100.058 80.4698 102.733 88.962 102.733 88.962C103.23 89.5349 103.791 89.963 103.942 89.2705C104.238 87.9359 103.797 85.8585 103.646 83.4789C103.495 81.0994 104.534 81.4015 104.685 78.2917C104.836 75.1819 104.389 73.0982 107.058 71.0208C109.727 68.9434 113.29 72.0595 116.853 72.5001C120.416 72.9408 123.085 69.831 124.716 71.0208C126.346 72.2106 127.385 74.7286 127.234 77.5489C127.083 80.3691 126.938 80.3628 127.53 82.7424C127.681 83.3719 127.813 83.8629 127.926 84.2847C128.021 81.6659 128.078 79.5885 128.122 78.8835C128.254 76.4976 127.215 71.3041 123.803 68.9308Z" fill="#263238" stroke="#263238" stroke-miterlimit="10"/>
<path d="M112.069 87.659C112.195 88.6348 111.905 89.4783 111.439 89.5476C110.974 89.6168 110.457 88.8677 110.331 87.892C110.206 86.9162 110.501 86.0726 110.961 86.0034C111.421 85.9342 111.956 86.6833 112.069 87.659Z" fill="#263238"/>
<path d="M122.167 87.4387C122.211 88.4208 121.839 89.2328 121.348 89.2517C120.857 89.2706 120.429 88.4963 120.391 87.5143C120.354 86.5322 120.712 85.7138 121.203 85.6949C121.694 85.6761 122.129 86.4567 122.167 87.4387Z" fill="#263238"/>
<path d="M116.085 94.2942C116.677 95.484 119.944 94.59 120.983 93.5513C122.022 92.5126 119.497 89.2517 119.346 87.4702C119.195 85.6887 121.424 83.7623 121.424 83.7623" stroke="#263238" stroke-miterlimit="10"/>
<path d="M120.687 97.4417C120.687 97.4417 116.828 98.6315 113.712 96.5541" stroke="#263238" stroke-miterlimit="10"/>
<path d="M108.367 84.6561C108.367 84.6561 110.741 82.5787 114.455 84.0644" stroke="#263238" stroke-miterlimit="10"/>
<path d="M126.617 84.8071C126.188 84.2505 125.618 83.8191 124.966 83.5578C124.314 83.2965 123.604 83.2149 122.909 83.3215" stroke="#263238" stroke-miterlimit="10"/>
<path d="M107.48 110.662C107.48 110.662 112.377 151.738 114.008 160.79C115.638 169.843 117.716 172.512 117.155 175.899C116.595 179.285 113.592 189.698 112.258 191.479C110.923 193.261 106.472 187.022 102.318 182.571C98.1628 178.121 94.3038 178.568 91.9305 178.417C89.5572 178.266 88.0716 178.272 88.0716 178.272C88.0565 176.733 88.1554 175.195 88.3674 173.67C88.6633 172.487 90.4449 165.36 90.5959 164.92C90.747 164.479 87.7568 115.389 88.2038 114.502C88.6507 113.614 98.1628 111.524 99.2015 111.083C100.24 110.643 106.29 107.558 107.48 110.662Z" fill="#F88D74" stroke="#263238" stroke-miterlimit="10"/>
<path d="M93.2904 173.827C93.2904 173.827 103.659 173.116 106.957 178.536" stroke="#263238" stroke-miterlimit="10"/>
<path d="M105.314 179.424C105.975 180.316 106.527 181.284 106.957 182.307" stroke="#263238" stroke-miterlimit="10"/>
<path d="M101.537 175.943C102.606 176.58 103.57 177.378 104.395 178.31" stroke="#263238" stroke-miterlimit="10"/>
<path d="M107.48 106.966C107.48 106.966 105.994 105.481 104.811 106.368C103.627 107.256 99.1449 111.121 99.1449 111.121C99.1449 111.121 101.367 130.554 102.557 129.075C103.747 127.596 106.416 123.139 106.863 122.988C107.31 122.836 109.677 126.695 109.677 126.695L107.48 106.966Z" fill="#F88D74" stroke="#263238" stroke-miterlimit="10"/>
<path d="M151.71 147.023C151.338 146.07 150.918 145.137 150.451 144.227C148.82 140.967 137.753 115.421 134.788 112.752C131.823 110.082 124.25 110.082 124.25 110.082C124.25 110.082 128.556 139.582 128.405 150.416C128.254 161.25 126.328 189.137 126.623 190.176C126.919 191.215 131.225 189.288 133.454 187.507C135.682 185.725 136.268 185.429 136.419 184.542C136.57 183.654 135.531 154.57 135.531 153.532C135.531 152.493 135.531 140.205 135.531 140.205C135.531 140.205 141.43 157.032 142.173 157.032" fill="#F88D74"/>
<path d="M151.71 147.023C151.338 146.07 150.918 145.137 150.451 144.227C148.82 140.967 137.753 115.421 134.788 112.752C131.823 110.082 124.25 110.082 124.25 110.082C124.25 110.082 128.556 139.582 128.405 150.416C128.254 161.25 126.328 189.137 126.623 190.176C126.919 191.215 131.225 189.288 133.454 187.507C135.682 185.725 136.268 185.429 136.419 184.542C136.57 183.654 135.531 154.57 135.531 153.532C135.531 152.493 135.531 140.205 135.531 140.205C135.531 140.205 141.43 157.032 142.173 157.032" stroke="#263238" stroke-miterlimit="10"/>
<path d="M135.506 140.205L134.738 130.139" stroke="#263238" stroke-miterlimit="10"/>
<path d="M124.099 106.67C124.42 106.504 124.79 106.457 125.143 106.538C125.496 106.619 125.808 106.822 126.025 107.111C126.919 108.15 129.173 111.266 129.173 111.266C129.173 111.266 132.736 122.396 132.585 123.856C132.434 125.317 129.62 122.371 128.877 122.522C128.134 122.673 126.649 124.744 126.649 124.744L124.13 111.524L124.099 106.67Z" fill="#F88D74" stroke="#263238" stroke-miterlimit="10"/>
<path d="M92.9254 113.142C92.9254 113.142 86.3909 114.539 85.0564 115.874C83.7218 117.209 67.8894 156.692 67.8894 158.322C67.8894 159.953 86.4035 185.134 86.4035 185.134L94.1277 178.02L83.3315 158.178L92.3525 137.315" fill="#F88D74"/>
<path d="M92.9254 113.142C92.9254 113.142 86.3909 114.539 85.0564 115.874C83.7218 117.209 67.8894 156.692 67.8894 158.322C67.8894 159.953 86.4035 185.134 86.4035 185.134L94.1277 178.02L83.3315 158.178L92.3525 137.315" stroke="#263238" stroke-miterlimit="10"/>
<path d="M94.1276 178.02C94.1276 178.02 96.3498 179.355 97.3885 180.098C98.4272 180.84 100.354 184.252 101.096 184.693C101.839 185.134 102.286 186.771 100.656 186.922C99.0253 187.073 97.2437 184.693 96.7968 184.252C96.3498 183.812 88.7956 189.629 88.7956 189.629L87.4862 184.202L94.1276 178.02Z" fill="#A3A3A3" stroke="#263238" stroke-miterlimit="10"/>
<path d="M119.648 271.9C119.648 271.9 120.121 277.685 120.416 278.573C120.712 279.461 125.453 279.203 127.656 279.316C130.301 279.507 132.955 279.096 135.418 278.114C135.988 277.87 136.478 277.47 136.831 276.96C137.184 276.45 137.386 275.85 137.413 275.23C137.489 273.468 137.527 270.918 137.155 269.81C136.564 268.029 135.525 268.173 134.486 269.067C133.447 269.961 130.331 271.107 125.289 271.258C120.246 271.409 120.385 270.861 119.648 271.9Z" fill="#A3A3A3" stroke="#263238" stroke-miterlimit="10"/>
<path d="M94.2725 275.067L92.812 281.551C92.812 281.551 85.6355 285.598 84.7479 286.939C83.8602 288.28 84.1561 290.496 84.1561 290.496H109.261C109.261 290.496 110.3 290.647 110.445 288.866C110.59 287.084 108.808 276.552 108.808 276.552L94.2725 275.067Z" fill="white" stroke="#263238" stroke-miterlimit="10"/>
<path d="M84.1562 290.496H109.261C109.261 290.496 110.3 290.647 110.445 288.866C110.458 288.669 110.458 288.471 110.445 288.274H84.2569C84.1139 289.006 84.0799 289.754 84.1562 290.496Z" fill="white" stroke="#263238" stroke-miterlimit="10"/>
<path d="M109.557 271.655C109.557 271.655 109.891 278.768 109.746 279.511C109.601 280.254 104.71 282.029 100.845 281.444C96.9793 280.858 93.1266 280.55 91.8109 279.373C90.4952 278.195 91.3262 272.844 91.6221 271.818C91.9179 270.792 95.3299 272.857 99.0378 273.008C102.746 273.159 107.222 272.416 108.537 271.378C109.853 270.339 109.557 271.655 109.557 271.655Z" fill="#A3A3A3" stroke="#263238" stroke-miterlimit="10"/>
<path d="M188.196 100.948C190.662 102.095 192.793 103.855 194.385 106.06C196.997 109.975 198.313 116.648 195.335 120.576C192.358 124.505 191.646 124.505 192.244 125.455C192.842 126.406 195.933 124.977 195.933 124.977C195.933 124.977 196.405 127.954 194.265 128.905C192.125 129.856 185.452 132.235 181.297 129.025C177.142 125.814 178.2 118.197 180.699 113.916C183.198 109.635 183.437 108.679 183.677 107.967C183.916 107.256 185.697 100.589 188.196 100.948Z" fill="#263238" stroke="#263238" stroke-miterlimit="10"/>
<path d="M164.3 194.041C164.3 194.041 165.88 221.992 167.07 229.766C168.26 237.541 169.972 244.799 171.155 251.913C172.339 259.026 172.735 273.663 172.735 275.646C172.735 277.629 173.529 278.674 169.708 282.237C165.886 285.8 160.082 288.035 160.479 288.954C160.875 289.873 164.829 290.804 169.575 290.408C174.322 290.011 179.062 289.879 179.327 289.218C179.591 288.557 180.649 285.132 180.649 279.467C180.649 273.801 183.022 257.585 183.677 249.281C184.331 240.978 182.096 232.14 182.757 229.376C183.418 226.612 184.338 193.38 184.338 189.716C184.338 186.053 163.116 190.245 163.116 190.245L164.3 194.041Z" fill="#263238" stroke="#263238" stroke-miterlimit="10"/>
<path d="M172.736 278.409L172.616 278.453C172.314 279.385 171.546 280.518 169.708 282.23C165.88 285.787 160.082 288.028 160.479 288.947C160.875 289.866 164.829 290.798 169.575 290.401C174.322 290.005 179.062 289.873 179.327 289.212C179.591 288.551 180.649 285.126 180.649 279.46C180.649 279.139 180.649 278.774 180.649 278.39C179.678 279.001 178.595 279.41 177.463 279.593C175.537 279.731 172.736 278.409 172.736 278.409Z" fill="#F88D74" stroke="#263238" stroke-miterlimit="10"/>
<path d="M179.314 289.218C179.578 288.511 179.788 287.785 179.944 287.046C175.461 288.047 167.202 289.256 165.112 288.935C163.846 288.747 162.613 288.383 161.448 287.852C160.762 288.318 160.384 288.677 160.498 288.935C160.894 289.86 164.848 290.786 169.594 290.389C174.341 289.992 179.062 289.879 179.314 289.218Z" fill="#FFD1BA" stroke="#263238" stroke-miterlimit="10"/>
<path d="M142.021 185.209C142.021 185.209 133.057 223.175 132.27 227.525C131.483 231.875 131.345 233.858 131.741 234.777C132.138 235.696 178.81 272.819 178.81 272.819L182.235 266.625C182.235 266.625 168.914 249.407 163.639 244.119C158.364 238.831 148.877 228.564 148.877 228.564L163.771 192.442L142.021 185.209Z" fill="#263238" stroke="#263238" stroke-miterlimit="10"/>
<path d="M178.81 272.819C178.81 272.819 178.678 281.003 178.414 282.57C178.049 284.446 177.333 286.235 176.305 287.846C175.379 289.161 172.874 290.483 175.644 290.483C178.047 290.48 180.44 290.169 182.764 289.558C184.873 289.029 186.32 282.438 188.826 279.41C191.331 276.382 193.176 273.348 193.176 271.761C193.176 270.175 182.235 266.625 182.235 266.625L178.81 272.819Z" fill="#F88D74" stroke="#263238" stroke-miterlimit="10"/>
<path d="M193.163 271.761C193.163 271.239 191.948 270.502 190.331 269.728C189.766 272.393 188.764 274.945 187.365 277.282C185.653 280.178 184.218 286.511 181.171 288.356C178.974 289.69 176.236 289.508 174.876 289.3C174.202 289.98 173.944 290.464 175.619 290.464C178.022 290.461 180.414 290.15 182.739 289.539C184.847 289.01 186.295 282.419 188.801 279.391C191.306 276.363 193.163 273.348 193.163 271.761Z" fill="#FFD1BA" stroke="#263238" stroke-miterlimit="10"/>
<path d="M140.007 187.381L139.214 192.499C139.214 192.499 150.23 198.97 159.188 200.538C164.741 201.513 174.404 201.243 179.169 200.273C181.384 199.707 183.54 198.934 185.609 197.963L186.062 187.318C186.062 187.318 161.108 191.095 150.696 188.174C140.284 185.253 140.007 187.381 140.007 187.381Z" fill="#F88D74" stroke="#263238" stroke-miterlimit="10"/>
<path d="M167.353 110.265L165.616 119.166C165.616 119.166 161.133 118.77 157.967 116.535C154.801 114.3 150.192 111.788 144.785 111.26C139.377 110.731 127.914 109.283 127.914 109.283C127.914 109.283 142.808 121.936 143.205 122.465C143.601 122.994 149.097 151.649 149.097 151.649C149.097 151.649 138.93 186.758 138.534 187.683C138.137 188.608 142.626 191.24 142.626 191.24C142.626 191.24 158.118 198.838 172.44 197.963C178.395 197.598 186.232 195.294 186.761 193.556C187.29 191.819 186.044 180.185 186.044 180.185L184.35 154.098C184.35 154.098 186.591 144.215 186.723 143.686C186.856 143.157 199.906 163.063 199.906 163.063C199.906 163.063 204.388 164.12 206.893 162.666C209.399 161.212 210.318 154.627 209.531 152.254C208.744 149.88 192.653 127.734 190.645 126.286C188.637 124.838 177.992 121.672 177.992 121.672L178.426 112.198L167.353 110.265Z" fill="white"/>
<path d="M144.225 168.432L143.224 171.888C150.148 174.797 161.48 178.524 174.158 178.524C178.089 178.532 182.011 178.152 185.867 177.39L185.634 173.827C169.065 177.246 152.817 172.046 144.225 168.432Z" fill="#F88D74"/>
<path d="M169.947 169.377C176.683 169.377 181.328 168.747 185.206 167.324L184.961 163.623C180.693 165.455 175.342 166.046 166.352 165.801C160.208 165.637 152.364 161.64 147.114 158.499C146.799 159.588 146.485 160.765 146.094 162.005C151.659 165.26 159.635 169.144 166.239 169.326C167.555 169.358 168.782 169.377 169.947 169.377Z" fill="#F88D74"/>
<path d="M165.635 156.163C157.885 155.257 152.415 152.386 148.638 149.301C148.921 150.762 149.091 151.649 149.091 151.649C149.091 151.649 148.877 152.373 148.518 153.62C153.498 156.982 159.234 159.059 165.213 159.663C168.509 160.067 171.826 160.278 175.147 160.293C178.346 160.342 181.541 160.032 184.671 159.367L184.438 155.785C181.121 156.654 175.317 157.302 165.635 156.163Z" fill="#F88D74"/>
<path d="M195.788 156.837C196.494 157.907 197.154 158.901 197.727 159.776C201.246 157.724 207.756 156.213 212.206 156.301C212.351 154.935 210.551 153.154 210.318 152.273C205.08 152.21 199.698 154.532 195.788 156.837Z" fill="#F88D74"/>
<path d="M169.191 141.816C170.997 142.154 172.831 142.32 174.668 142.314C180.164 142.314 186.484 140.966 193.554 138.297C195.379 137.605 197.067 136.893 198.59 136.214C197.847 135.213 197.123 134.237 196.424 133.305C189.361 136.415 178.659 140.041 169.89 138.341C162.745 136.969 157.168 128.899 153.756 122.421C152.028 119.094 150.521 115.658 149.242 112.134C147.925 111.733 146.574 111.451 145.207 111.291C147.53 118.379 155.581 139.197 169.191 141.816Z" fill="#F88D74"/>
<path d="M160.668 148.143C164.344 149.591 168.269 150.299 172.219 150.227C176.741 150.159 181.237 149.539 185.609 148.382C185.962 146.852 186.295 145.386 186.497 144.504C178.231 146.783 169.135 147.834 161.983 144.888C155.688 142.301 149.651 135.628 144.451 128.118C144.93 130.435 145.49 133.242 146.05 136.1C150.551 141.508 155.493 146.009 160.668 148.143Z" fill="#F88D74"/>
<path d="M174.612 193.978C178.733 194.017 182.845 193.584 186.868 192.688C186.912 191.819 186.868 190.522 186.786 189.081C171.25 193.015 149.72 187.4 139.573 184.214C139.031 186.027 138.66 187.261 138.54 187.601C143.713 189.231 148.966 190.595 154.278 191.687C160.963 193.126 167.774 193.894 174.612 193.978Z" fill="#F88D74"/>
<path d="M141.574 177.523L140.58 180.922C145.77 182.498 151.045 183.776 156.381 184.75C162.401 185.889 168.51 186.487 174.637 186.537C178.622 186.56 182.601 186.215 186.522 185.505C186.415 184.17 186.295 182.918 186.201 181.961C170.148 185.052 151.036 180.387 141.574 177.523Z" fill="#F88D74"/>
<path d="M130.797 111.732C132.887 113.513 135.758 115.962 138.213 118.077C136.614 115.257 135.172 112.525 133.919 110.026L129.702 109.503C130.042 110.221 130.407 110.963 130.797 111.732Z" fill="#F88D74"/>
<path d="M205.206 145.493C200.629 146.905 196.26 148.918 192.213 151.479C192.842 152.449 193.528 153.444 194.183 154.419C197.362 152.468 202.335 149.786 207.309 148.584C206.692 147.658 205.987 146.62 205.206 145.493Z" fill="#F88D74"/>
<path d="M187.258 144.296C187.737 144.926 188.517 146.009 189.411 147.337C190.563 146.991 191.734 146.619 192.93 146.21C196.708 144.913 200.107 143.484 202.896 142.206C202.209 141.25 201.504 140.261 200.793 139.279C196.405 141.268 191.882 142.944 187.258 144.296Z" fill="#F88D74"/>
<path d="M167.353 110.265L165.616 119.166C165.616 119.166 161.133 118.77 157.967 116.535C154.801 114.3 150.192 111.788 144.785 111.26C139.377 110.731 127.914 109.283 127.914 109.283C127.914 109.283 142.808 121.936 143.205 122.465C143.601 122.994 149.097 151.649 149.097 151.649C149.097 151.649 138.93 186.758 138.534 187.683C138.137 188.608 142.626 191.24 142.626 191.24C142.626 191.24 158.118 198.838 172.44 197.963C178.395 197.598 186.232 195.294 186.761 193.556C187.29 191.819 186.044 180.185 186.044 180.185L184.35 154.098C184.35 154.098 186.591 144.215 186.723 143.686C186.856 143.157 199.906 163.063 199.906 163.063C199.906 163.063 204.388 164.12 206.893 162.666C209.399 161.212 210.318 154.627 209.531 152.254C208.744 149.88 192.653 127.734 190.645 126.286C188.637 124.838 177.992 121.672 177.992 121.672L178.426 112.198L167.353 110.265Z" stroke="#263238" stroke-miterlimit="10"/>
<path d="M194.536 130.888L194.366 131.026C191.105 133.5 186.383 135.055 181.454 135.376C180.197 135.462 178.935 135.462 177.677 135.376C172.792 135.074 168.008 133.488 164.539 130.422C163.807 129.773 163.115 129.079 162.468 128.345C161.403 127.149 160.45 125.857 159.623 124.486C157.87 121.59 156.595 118.432 155.845 115.131C156.607 115.591 157.325 116.063 157.967 116.516C159.502 117.536 161.208 118.272 163.003 118.688L163.356 118.77C164.096 118.945 164.847 119.073 165.603 119.154L167.353 110.265L178.439 112.198L178.005 121.672C178.005 121.672 188.706 124.819 190.664 126.286C191.18 126.658 192.641 128.433 194.536 130.888Z" fill="#FFD1BA" stroke="#263238" stroke-miterlimit="10"/>
<path d="M178.338 114.602L174.561 111.524L167.347 110.265L165.735 118.512C167.076 119.084 169.047 119.651 170.923 119.141C173.541 118.423 177.016 116.189 178.288 115.326L178.338 114.602Z" fill="#263238" stroke="#263238" stroke-miterlimit="10"/>
<path d="M163.022 118.7L163.381 118.744V118.782L162.487 128.357C161.422 127.161 160.469 125.869 159.641 124.498L161.052 118.455L163.022 118.7Z" fill="#F88D74" stroke="#263238" stroke-miterlimit="10"/>
<path d="M182.971 123.422L181.454 135.383C180.197 135.468 178.935 135.468 177.677 135.383L180.032 122.54L182.971 123.422Z" fill="#F88D74" stroke="#263238" stroke-miterlimit="10"/>
<path d="M165.59 93.3309C165.59 93.3309 163.922 104.99 164.52 107.369C165.118 109.749 170.11 116.768 173.334 116.648C176.557 116.529 182.613 113.677 183.683 111.656C184.753 109.635 188.203 100.954 188.203 100.954C188.203 100.954 188.681 95.8363 187.964 93.0979C187.246 90.3595 184.753 87.5078 181.542 87.149C178.332 86.7902 167.353 88.2129 165.59 93.3309Z" fill="#FFD1BA" stroke="#263238" stroke-miterlimit="10"/>
<path d="M182.462 90.5924C182.462 90.5924 180.674 92.972 171.76 94.3695C162.846 95.7671 161.411 90.4476 161.643 89.73C161.876 89.0123 164.023 83.6614 171.999 81.8799C179.975 80.0984 186.157 84.0203 188.776 88.301C191.394 92.5817 190.557 97.5801 189.726 99.7268C189.214 101.026 188.491 102.232 187.586 103.296C187.586 103.296 187.227 103.057 186.509 100.917C185.792 98.7762 180.346 95.5908 182.462 90.5924Z" fill="#263238" stroke="#263238" stroke-miterlimit="10"/>
<path d="M164.999 97.1393C164.999 97.1393 163.922 93.0915 162.38 96.9001C160.838 100.709 164.64 102.729 164.64 102.729L164.999 97.1393Z" fill="#FFD1BA" stroke="#263238" stroke-miterlimit="10"/>
<path d="M187.126 103.328C187.126 103.328 189.267 101.779 189.865 104.039C190.463 106.299 186.767 108.445 185.937 108.798C185.526 108.997 185.082 109.119 184.627 109.157L187.126 103.328Z" fill="#FFD1BA" stroke="#263238" stroke-miterlimit="10"/>
<path d="M169.758 97.6115C169.758 97.6115 172.49 96.1888 174.039 98.4488" stroke="#263238" stroke-miterlimit="10"/>
<path d="M179.276 99.8778C179.276 99.8778 181.536 98.4488 182.959 101.3" stroke="#263238" stroke-miterlimit="10"/>
<path d="M175.467 98.8013C175.298 99.8333 174.89 100.812 174.278 101.659C173.327 102.849 173.56 103.548 174.278 103.919C174.995 104.291 176.418 103.68 176.418 103.68" stroke="#263238" stroke-miterlimit="10"/>
<path d="M169.279 104.996C169.279 104.996 171.659 107.256 173.56 107.734C175.461 108.213 179.509 107.734 180.346 107.105" stroke="#263238" stroke-miterlimit="10"/>
<path d="M169.638 94.8794C170.324 94.348 171.108 93.9585 171.946 93.7337C172.783 93.5088 173.657 93.4532 174.517 93.57" stroke="#263238" stroke-width="2" stroke-miterlimit="10" stroke-linecap="round"/>
<path d="M179.868 95.2319C180.796 95.287 181.681 95.6422 182.389 96.244C183.098 96.8457 183.592 97.6615 183.796 98.5684" stroke="#263238" stroke-width="2" stroke-miterlimit="10" stroke-linecap="round"/>
<path d="M146.478 115.257C148.291 117.731 148.996 120.293 145.849 122.182C144.527 122.975 141.757 122.811 138.068 121.124C134.379 119.437 128.443 112.821 126.737 110.712C125.031 108.603 126.208 105.178 127.926 103.856C132.213 100.558 138.137 105.587 140.617 108.848C141.788 110.416 144.69 112.795 146.478 115.257Z" fill="white"/>
<path d="M144.546 112.984C143.576 111.965 142.569 111.001 141.763 110.164L141.449 110.303C138.685 111.631 136.167 114.288 133.938 118.209C134.826 119.003 135.768 119.733 136.759 120.394C139.957 114.565 142.997 113.243 144.546 112.984Z" fill="#F88D74"/>
<path d="M135.329 104.133C132.089 105.846 129.312 108.316 127.234 111.335C127.863 112.046 128.688 113.003 129.67 114.048C131.061 111.719 133.655 108.748 138.483 106.494C137.525 105.59 136.467 104.798 135.329 104.133Z" fill="#F88D74"/>
<path d="M146.478 115.257C148.291 117.731 148.996 120.293 145.849 122.182C144.527 122.975 141.757 122.811 138.068 121.124C134.379 119.437 128.443 112.821 126.737 110.712C125.031 108.603 126.208 105.178 127.926 103.856C132.213 100.558 138.137 105.587 140.617 108.848C141.788 110.416 144.69 112.795 146.478 115.257Z" stroke="#263238" stroke-miterlimit="10"/>
<path d="M147.297 117.454C147.297 117.454 144.659 118.247 143.211 119.695C141.763 121.143 141.367 121.54 141.889 122.213C142.412 122.887 143.343 124.983 144.923 125.638C146.503 126.292 149.959 123.661 150.457 122.61C150.701 122.184 150.82 121.697 150.797 121.207C150.775 120.716 150.613 120.242 150.331 119.84C149.383 118.967 148.369 118.169 147.297 117.454Z" fill="#F88D74" stroke="#263238" stroke-miterlimit="10"/>
<path d="M148.745 121.407C148.745 121.407 144.923 123.781 144.395 124.555C143.866 125.329 145.849 130.749 145.849 130.749L146.636 132.99C146.636 132.99 145.452 131.807 144.923 132.329C144.395 132.852 145.32 134.847 145.553 135.231C145.786 135.616 147.133 138.001 148.071 137.869C149.009 137.737 153.076 137.34 154.001 136.679C154.926 136.018 156.903 133.532 157.149 132.594C157.394 131.656 153.856 126.003 152.408 123.894C150.96 121.785 149.802 121.143 148.745 121.407Z" fill="#FFD1BA" stroke="#263238" stroke-miterlimit="10"/>
<path d="M180.252 174.797C180.252 174.797 177.218 177.699 176.695 178.882C176.173 180.066 177.482 182.439 177.746 184.025C177.926 184.807 178.313 185.525 178.867 186.105C179.421 186.684 180.121 187.103 180.894 187.318C182.474 187.847 186.163 189.691 187.353 188.375C188.543 187.06 190.116 184.68 189.871 183.1C189.625 181.52 187.353 180.072 187.353 180.072C186.745 179.535 186.171 178.961 185.634 178.353C185.112 177.724 183.658 177.434 183.393 177.038C183.129 176.641 180.252 174.797 180.252 174.797Z" fill="#FFD1BA" stroke="#263238" stroke-miterlimit="10"/>
<path d="M182.757 178.882C183.525 179.543 184.076 180.421 184.337 181.4C184.592 182.569 184.725 183.761 184.734 184.957C184.734 184.957 187.107 181.004 187.882 182.193C188.656 183.383 187.624 186.543 186.83 186.934L186.037 187.33" fill="#FFD1BA"/>
<path d="M182.757 178.882C183.525 179.543 184.076 180.421 184.337 181.4C184.592 182.569 184.725 183.761 184.734 184.957C184.734 184.957 187.107 181.004 187.882 182.193C188.656 183.383 187.624 186.543 186.83 186.934L186.037 187.33" stroke="#263238" stroke-miterlimit="10"/>
<path d="M183.154 172.423C183.154 172.423 180.384 173.739 180.252 174.797C180.12 175.854 181.568 178.882 182.77 178.882C183.972 178.882 187.517 176.364 187.517 176.364L183.154 172.423Z" fill="#F88D74" stroke="#263238" stroke-miterlimit="10"/>
<path d="M201.347 159.506C201.347 159.506 183.551 170.208 183.16 172.424C182.77 174.639 184.873 176.641 186.188 177.17C187.504 177.699 205.433 169.654 209.65 167.809C213.868 165.965 214.926 163.327 213.874 159.374C212.823 155.42 209.09 150.881 209.09 150.881" fill="white"/>
<path d="M195.593 163.063C194.303 163.881 192.912 164.781 191.539 165.688C194.423 166.059 198.829 167.318 201.977 171.177C203.148 170.673 204.274 170.176 205.301 169.729C202.871 166.516 199.465 164.177 195.593 163.063Z" fill="#F88D74"/>
<path d="M190.305 176.006C191.3 175.634 192.42 175.193 193.617 174.709C192.242 172.169 190.55 169.814 188.58 167.702C187.523 168.445 186.541 169.156 185.716 169.805C187.491 171.679 189.032 173.761 190.305 176.006Z" fill="#F88D74"/>
<path d="M214.227 162.395C210.954 159.776 206.906 158.373 203.116 157.636L201.341 159.525C201.341 159.525 200.604 159.965 199.452 160.683C203.859 161.161 209.115 162.471 212.767 165.801C213.656 164.884 214.176 163.671 214.227 162.395Z" fill="#F88D74"/>
<path d="M207.693 152.436L202.996 157.661C205.982 156.782 209.075 156.325 212.187 156.302C212.194 155.722 212.03 155.152 211.715 154.665C211.161 153.739 210.607 152.921 210.141 152.279C209.323 152.275 208.504 152.327 207.693 152.436Z" fill="#F88D74"/>
<path d="M201.347 159.506C201.347 159.506 183.551 170.208 183.16 172.424C182.77 174.639 184.873 176.641 186.188 177.17C187.504 177.699 205.433 169.654 209.65 167.809C213.868 165.965 214.926 163.327 213.874 159.374C212.823 155.42 209.09 150.881 209.09 150.881" stroke="#263238" stroke-miterlimit="10"/>
<path d="M161.751 3.30333C153.473 3.41664 145.006 4.97785 141.291 12.1166C136.073 22.1511 135.248 49.8373 146.504 54.2566C157.76 58.6758 175.399 55.8618 176.198 62.2766C176.684 66.1352 176.601 70.0441 175.953 73.8786C175.953 73.8786 187.435 66.3244 192.251 63.0824C202.078 56.5354 216.248 66.2867 225.439 56.4284C227.794 53.9103 229.405 50.7627 230.708 47.5774C233.667 40.3001 238.036 26.9732 233.68 19.633C230.274 13.8981 222.153 11.4871 216.122 9.90068C202.482 6.3238 188.49 4.26122 174.398 3.75029C170.791 3.64327 166.302 3.24038 161.751 3.30333Z" fill="#263238"/>
<path d="M159.453 1.00575C151.181 1.11906 142.708 2.68027 138.994 9.81901C133.775 19.8472 132.975 47.5397 144.206 51.9527C155.437 56.3656 173.101 53.5579 173.9 59.979C174.386 63.8376 174.304 67.7465 173.655 71.5811C173.655 71.5811 185.137 63.9891 189.953 60.7785C199.78 54.2315 213.957 63.9891 223.141 54.1308C225.496 51.6127 227.107 48.4651 228.41 45.2735C231.369 38.0025 235.738 24.6693 231.382 17.3355C227.982 11.5942 219.855 9.1832 213.824 7.59681C200.184 4.01993 186.192 1.95734 172.1 1.44641C168.493 1.32681 164.004 0.949095 159.453 1.00575Z" fill="#F88D74" stroke="white" stroke-miterlimit="10"/>
<path d="M59.2081 290.54H236.614" stroke="#263238" stroke-miterlimit="10"/>
<path d="M176.024 25.5467L173.601 25.2674L171.321 17.4159L171.263 17.4091C171.252 17.76 171.236 18.0905 171.215 18.4006C171.2 18.7064 171.18 18.9868 171.155 19.2419C171.136 19.4976 171.114 19.7282 171.091 19.9338L170.517 24.912L168.593 24.6903L169.83 13.9555L172.239 14.2331L174.523 21.9141L174.582 21.9209C174.601 21.5809 174.62 21.2656 174.639 20.9751C174.658 20.6797 174.677 20.4066 174.696 20.1559C174.715 19.9051 174.736 19.6769 174.76 19.4713L175.323 14.5885L177.261 14.812L176.024 25.5467Z" fill="#263238"/>
<path d="M184.275 26.4978L179.451 25.9418L180.688 15.207L185.513 15.7631L185.31 17.5179L182.549 17.1997L182.258 19.7255L184.828 20.0217L184.625 21.7839L182.055 21.4877L181.721 24.388L184.482 24.7062L184.275 26.4978Z" fill="#263238"/>
<path d="M199.271 17.3489L195.926 27.8407L193.569 27.5691L193.167 22.3444C193.158 22.1648 193.148 21.9727 193.137 21.7681C193.131 21.564 193.123 21.3498 193.114 21.1256C193.11 20.9019 193.11 20.6712 193.112 20.4334C193.115 20.1908 193.119 19.9407 193.124 19.6834C193.083 19.872 193.037 20.0751 192.987 20.2925C192.938 20.5051 192.885 20.7247 192.829 20.9514C192.774 21.1732 192.716 21.3947 192.656 21.6159C192.596 21.8371 192.534 22.0483 192.471 22.2494L190.889 27.2602L188.547 26.9902L187.662 16.0109L189.674 16.2428L190.033 21.7823C190.047 22.0022 190.057 22.2389 190.062 22.4925C190.073 22.7418 190.081 22.9981 190.085 23.2615C190.095 23.5254 190.1 23.7839 190.1 24.037C190.106 24.2906 190.106 24.5262 190.101 24.7438C190.159 24.4975 190.22 24.2442 190.285 23.9838C190.355 23.724 190.424 23.4691 190.492 23.2191C190.565 22.9696 190.635 22.7346 190.7 22.5139C190.766 22.2883 190.826 22.087 190.881 21.9098L192.611 16.5813L194.337 16.7802L194.738 22.3394C194.754 22.5398 194.769 22.7597 194.781 22.9991C194.798 23.2343 194.812 23.4814 194.822 23.7404C194.831 23.9995 194.839 24.2607 194.843 24.5241C194.848 24.7826 194.851 25.0383 194.851 25.2914C194.91 25.0005 194.98 24.6912 195.062 24.3634C195.145 24.0356 195.23 23.7056 195.318 23.3735C195.411 23.0371 195.502 22.7202 195.591 22.4229L197.215 17.1119L199.271 17.3489Z" fill="#263238"/>
<path d="M158.364 42.1006L156.3 41.8628L157.538 31.1281L162.332 31.6807L162.13 33.4356L159.399 33.1207L159.062 36.0431L161.617 36.3376L161.415 38.0924L158.859 37.7979L158.364 42.1006Z" fill="#263238"/>
<path d="M167.764 32.3068C168.557 32.3982 169.202 32.5891 169.7 32.8796C170.197 33.17 170.546 33.56 170.748 34.0494C170.954 34.5395 171.017 35.132 170.937 35.8271C170.886 36.2677 170.786 36.6628 170.637 37.0127C170.488 37.3576 170.282 37.6587 170.019 37.9161C169.762 38.1692 169.445 38.3807 169.068 38.5505L170.734 43.5265L168.465 43.265L167.195 38.8555L166.579 38.7844L166.094 42.9916L164.03 42.7538L165.268 32.0191L167.764 32.3068ZM167.549 34.0453L167.13 33.9971L166.767 37.1543L167.229 37.2077C167.689 37.2607 168.053 37.1612 168.32 36.9093C168.592 36.6579 168.76 36.2508 168.825 35.6879C168.883 35.1837 168.806 34.7978 168.594 34.5303C168.387 34.2634 168.038 34.1017 167.549 34.0453Z" fill="#263238"/>
<path d="M173.244 43.8158L174.481 33.081L176.544 33.3188L175.307 44.0536L173.244 43.8158Z" fill="#263238"/>
<path d="M183.566 45.0055L178.742 44.4495L179.979 33.7147L184.803 34.2708L184.601 36.0256L181.84 35.7074L181.549 38.2332L184.119 38.5294L183.916 40.2916L181.346 39.9954L181.012 42.8957L183.772 43.2139L183.566 45.0055Z" fill="#263238"/>
<path d="M194.094 46.219L191.671 45.9397L189.391 38.0881L189.333 38.0813C189.322 38.4323 189.306 38.7628 189.285 39.0728C189.27 39.3786 189.25 39.659 189.225 39.9141C189.206 40.1698 189.184 40.4004 189.161 40.606L188.587 45.5842L186.663 45.3625L187.9 34.6277L190.309 34.9053L192.593 42.5863L192.652 42.5931C192.671 42.2531 192.69 41.9378 192.709 41.6474C192.728 41.352 192.747 41.0789 192.766 40.8281C192.785 40.5773 192.806 40.3491 192.83 40.1436L193.393 35.2608L195.331 35.4842L194.094 46.219Z" fill="#263238"/>
<path d="M204.962 41.8321C204.824 43.0314 204.54 44.0254 204.112 44.8143C203.689 45.6038 203.134 46.1772 202.448 46.5346C201.768 46.8877 200.967 47.0112 200.047 46.9052L197.521 46.614L198.758 35.8793L201.439 36.1882C202.32 36.2897 203.043 36.574 203.609 37.041C204.18 37.5086 204.581 38.145 204.81 38.9502C205.04 39.7554 205.09 40.716 204.962 41.8321ZM202.829 41.683C202.921 40.8802 202.921 40.213 202.829 39.6816C202.736 39.1501 202.553 38.7445 202.277 38.4648C202.007 38.1856 201.649 38.0204 201.203 37.969L200.616 37.9013L199.793 45.0456L200.241 45.0972C200.985 45.183 201.565 44.9448 201.982 44.3828C202.404 43.8213 202.686 42.9214 202.829 41.683Z" fill="#263238"/>
<path d="M209.633 44.476L207.996 44.2873L208.493 37.0013L210.784 37.2654L209.633 44.476ZM207.364 46.6697C207.41 46.2683 207.543 45.9737 207.763 45.7857C207.988 45.5984 208.294 45.527 208.681 45.5716C209.043 45.6133 209.312 45.751 209.489 45.9846C209.666 46.2134 209.731 46.5309 209.684 46.9371C209.638 47.3336 209.498 47.6274 209.263 47.8186C209.033 48.0054 208.744 48.0787 208.397 48.0387C208.029 47.9963 207.753 47.8578 207.567 47.6231C207.386 47.384 207.318 47.0662 207.364 46.6697Z" fill="#263238"/>
</svg>
