<svg width="36" height="35" viewBox="0 0 36 35" fill="none" xmlns="http://www.w3.org/2000/svg">
<path d="M35.3873 10.3304C35.3677 8.86084 35.0921 7.40587 34.5729 6.0306C34.1227 4.87057 33.435 3.81705 32.5539 2.93736C31.6727 2.05767 30.6174 1.37115 29.4555 0.921666C28.0956 0.412047 26.659 0.136487 25.2068 0.106719C23.3371 0.0232843 22.7443 0 17.9981 0C13.2518 0 12.6435 1.3011e-07 10.7874 0.106719C9.33583 0.136705 7.89989 0.412262 6.54065 0.921666C5.3785 1.37084 4.32306 2.05724 3.44187 2.93698C2.56067 3.81671 1.87312 4.87039 1.4232 6.0306C0.911711 7.38716 0.63629 8.82104 0.608841 10.2703C0.525267 12.1388 0.5 12.7306 0.5 17.469C0.5 22.2073 0.5 22.8127 0.608841 24.6677C0.637994 26.119 0.912039 27.551 1.4232 28.9112C1.87387 30.0711 2.56194 31.1243 3.44343 32.0037C4.32492 32.883 5.38046 33.5691 6.54259 34.0182C7.89811 34.5483 9.3343 34.8436 10.7893 34.8913C12.661 34.9748 13.2538 35 18 35C22.7462 35 23.3546 35 25.2107 34.8913C26.6628 34.8628 28.0995 34.5879 29.4594 34.0783C30.621 33.6283 31.676 32.9416 32.5571 32.062C33.4382 31.1824 34.126 30.1291 34.5768 28.9694C35.088 27.6112 35.362 26.1792 35.3912 24.7259C35.4747 22.8592 35.5 22.2674 35.5 17.5272C35.4961 12.7888 35.4961 12.1873 35.3873 10.3304ZM17.9864 26.4295C13.0225 26.4295 9.00122 22.4149 9.00122 17.4593C9.00122 12.5036 13.0225 8.48902 17.9864 8.48902C20.3694 8.48902 22.6548 9.4341 24.3399 11.1163C26.0249 12.7986 26.9716 15.0802 26.9716 17.4593C26.9716 19.8383 26.0249 22.1199 24.3399 23.8022C22.6548 25.4844 20.3694 26.4295 17.9864 26.4295ZM27.3292 10.2489C27.054 10.2492 26.7814 10.1952 26.5271 10.0902C26.2728 9.98519 26.0417 9.83113 25.8471 9.63685C25.6525 9.44256 25.4982 9.21187 25.393 8.95798C25.2878 8.70409 25.2338 8.43198 25.234 8.15722C25.234 7.88267 25.2882 7.6108 25.3934 7.35714C25.4987 7.10348 25.6529 6.873 25.8474 6.67886C26.0419 6.48472 26.2727 6.33072 26.5268 6.22565C26.7809 6.12058 27.0532 6.0665 27.3282 6.0665C27.6032 6.0665 27.8756 6.12058 28.1296 6.22565C28.3837 6.33072 28.6146 6.48472 28.809 6.67886C29.0035 6.873 29.1578 7.10348 29.263 7.35714C29.3683 7.6108 29.4224 7.88267 29.4224 8.15722C29.4224 9.31367 28.4856 10.2489 27.3292 10.2489Z" fill="#263238"/>
<path d="M17.9865 23.2869C21.2099 23.2869 23.823 20.6781 23.823 17.46C23.823 14.242 21.2099 11.6332 17.9865 11.6332C14.763 11.6332 12.1499 14.242 12.1499 17.46C12.1499 20.6781 14.763 23.2869 17.9865 23.2869Z" fill="#263238"/>
</svg>
