<svg width="334" height="73" viewBox="0 0 334 73" fill="none" xmlns="http://www.w3.org/2000/svg">
<path d="M90.6873 60.4506C92.0153 60.4506 93.0494 59.417 93.0494 58.089C93.0494 56.7611 92.0153 55.7275 90.6873 55.7275H81.24C74.7448 55.7275 69.4307 50.4133 69.4307 43.9181C69.4307 37.4229 74.7442 32.1082 81.24 32.1082H95.4109C97.9946 32.1082 100.135 34.2488 100.135 36.8318C100.135 39.4154 97.9946 41.5555 95.4109 41.5555H81.24C79.9115 41.5555 78.8785 42.589 78.8785 43.9176C78.8785 45.2455 79.9115 46.2791 81.24 46.2791H90.6873C97.1825 46.2791 102.497 51.5938 102.497 58.0884C102.497 64.5831 97.1825 69.8978 90.6873 69.8978H74.1543C71.5707 69.8978 69.4307 67.7572 69.4307 65.1742C69.4307 62.5906 71.5707 60.4506 74.1543 60.4506H90.6873Z" fill="#263238"/>
<path d="M111.35 32.1076V27.3851C111.35 24.8015 113.49 22.6615 116.073 22.6615C118.657 22.6615 120.797 24.8015 120.797 27.3851V32.1076H127.883C130.466 32.1076 132.606 34.2482 132.606 36.8312C132.606 39.4149 130.466 41.5549 127.883 41.5549H120.797V55.7264C120.797 58.31 122.937 60.4494 125.521 60.4494H127.883C130.466 60.4494 132.606 62.5894 132.606 65.173C132.606 67.7561 130.466 69.8967 127.883 69.8967H125.521C117.697 69.8967 111.349 63.5484 111.349 55.7258V41.5555H107.807C105.223 41.5555 103.083 39.4154 103.083 36.8318C103.083 34.2488 105.223 32.1082 107.807 32.1082H111.35V32.1076Z" fill="#263238"/>
<path d="M140.871 31.5177C143.011 31.5177 144.856 32.7733 145.668 34.6178C148.473 33.0677 151.646 32.1076 155.041 32.1076C157.625 32.1076 159.765 34.2482 159.765 36.8313C159.765 39.4149 157.625 41.5549 155.041 41.5549C149.801 41.5549 145.594 45.762 145.594 51.0027V65.1736C145.594 67.7567 143.454 69.8973 140.871 69.8973C138.287 69.8973 136.147 67.7567 136.147 65.1736V51.0033C136.147 47.6076 136.115 39.0941 136.115 36.9535C136.114 34.0014 137.918 31.5177 140.871 31.5177Z" fill="#263238"/>
<path d="M178.067 32.1076C188.475 32.1076 196.963 40.5959 196.963 51.0033C196.963 61.4101 188.475 69.8984 178.067 69.8984C167.66 69.8984 159.172 61.4101 159.172 51.0033C159.172 40.5959 167.66 32.1076 178.067 32.1076ZM178.067 60.4505C183.308 60.4505 187.515 56.2434 187.515 51.0033C187.515 45.7626 183.308 41.5554 178.067 41.5554C172.827 41.5554 168.62 45.7626 168.62 51.0033C168.62 56.2434 172.827 60.4505 178.067 60.4505Z" fill="#263238"/>
<path d="M218.214 69.8984C207.808 69.8984 199.32 61.4101 199.32 51.0033C199.32 40.5959 207.808 32.1076 218.214 32.1076C223.013 32.1076 227.884 33.9538 231.573 37.6439C232.46 38.5288 232.976 39.7839 232.976 40.9649C232.976 43.5485 230.762 45.6885 228.252 45.6885C226.997 45.6885 225.816 45.2455 224.931 44.286C223.085 42.3675 220.651 41.5549 218.214 41.5549C212.974 41.5549 208.767 45.762 208.767 51.0027C208.767 56.2428 212.974 60.45 218.214 60.45C220.651 60.45 223.013 59.5645 224.931 57.7189C225.816 56.8339 226.998 56.3174 228.252 56.3174C230.762 56.3174 232.976 58.5309 232.976 61.0411C232.976 62.2956 232.46 63.4766 231.573 64.3621C227.884 68.0522 223.013 69.8984 218.214 69.8984Z" fill="#263238"/>
<path d="M246.554 65.1748C246.554 67.7578 244.414 69.8984 241.831 69.8984C239.247 69.8984 237.107 67.7578 237.107 65.1748V22.6615C237.107 20.0779 239.247 17.9379 241.831 17.9379C244.414 17.9379 246.554 20.0779 246.554 22.6615V65.1748Z" fill="#263238"/>
<path d="M289.066 51.0033C289.066 54.3984 289.155 63.188 289.155 65.3286C289.155 68.2812 287.294 70.4883 284.341 70.4883C282.201 70.4883 280.356 69.2327 279.471 67.3894C276.74 69.0129 273.566 69.8984 270.171 69.8984C259.764 69.8984 251.275 61.4101 251.275 51.0033V36.8318C251.275 34.2488 253.415 32.1082 255.998 32.1082C258.582 32.1082 260.723 34.2488 260.723 36.8318V51.0033C260.723 56.2434 264.93 60.4506 270.17 60.4506C275.41 60.4506 279.617 56.2434 279.617 51.0033V36.8318C279.617 34.2488 281.757 32.1082 284.341 32.1082C286.924 32.1082 289.064 34.2488 289.064 36.8318V51.0033H289.066Z" fill="#263238"/>
<path d="M294.966 22.6615C294.966 20.0779 297.106 17.9379 299.689 17.9379C302.273 17.9379 304.413 20.0779 304.413 22.6615V34.6918C307.144 33.0683 310.392 32.1082 313.86 32.1082C324.268 32.1082 332.756 40.5965 332.756 51.0039C332.756 61.4107 324.268 69.899 313.86 69.899C310.392 69.899 307.218 69.0135 304.413 67.39C303.602 69.2338 301.756 70.4889 299.615 70.4889C296.663 70.4889 295.177 68.1871 295.177 65.235C295.177 63.0944 294.966 54.399 294.966 51.0039V22.6615ZM313.86 60.4506C319.101 60.4506 323.308 56.2434 323.308 51.0033C323.308 45.7626 319.101 41.5555 313.86 41.5555C308.621 41.5555 304.413 45.7626 304.413 51.0033C304.413 56.2434 308.621 60.4506 313.86 60.4506Z" fill="#263238"/>
<path d="M65.3003 51.0033C65.3003 50.3456 65.2653 49.6954 65.1993 49.0544V42.9098C65.2165 39.9262 65.2349 37.0596 65.2349 35.9561C65.2349 33.0034 63.3956 30.7802 60.4435 30.7802C58.3161 30.7802 56.4791 32.0198 55.5885 33.8493C55.5885 33.8493 55.5288 34.0996 55.4622 34.433C52.7701 32.9535 49.6838 32.1082 46.4063 32.1082C35.999 32.1082 27.5112 40.5965 27.5112 51.0039C27.5112 61.4107 35.9995 69.899 46.4063 69.899C49.8014 69.899 52.975 69.0135 55.7061 67.3899C56.591 69.2338 58.4366 70.4889 60.5772 70.4889C63.5299 70.4889 65.3686 68.2657 65.3686 65.3136C65.368 63.1731 65.3003 54.3984 65.3003 51.0033ZM46.4058 60.4505C41.1651 60.4505 36.9579 56.2434 36.9579 51.0033C36.9579 45.7626 41.1651 41.5554 46.4058 41.5554C51.6459 41.5554 55.853 45.7626 55.853 51.0033C55.853 56.2434 51.6465 60.4505 46.4058 60.4505Z" fill="#263238"/>
<path d="M11.1563 19.7869L10.2467 23.7157L12.968 26.6913L8.95086 27.0408L6.96236 30.5495L5.3882 26.8359L1.43701 26.0273L4.48204 23.384L4.02867 19.376L7.48287 21.4558L11.1563 19.7869Z" fill="#263238"/>
<path d="M30.6941 23.3536L29.9033 27.3082L32.7107 30.2018L28.7068 30.6712L26.8221 34.2362L25.1389 30.5719L21.1665 29.8815L24.1306 27.1481L23.559 23.1568L27.0735 25.1304L30.6941 23.3536Z" fill="#263238"/>
<path d="M40.5295 3.74172L39.1757 7.54197L41.5367 10.8097L37.5063 10.6966L35.1281 13.9522L33.9907 10.0826L30.1577 8.8269L33.4874 6.5503L33.496 2.51648L36.6914 4.97901L40.5295 3.74172Z" fill="#263238"/>
<path d="M22.8932 7.12075L21.5388 10.921L23.9009 14.1893L19.8688 14.0745L17.4918 17.3307L16.3532 13.4616L12.522 12.2059L15.8493 9.92991L15.8597 5.89609L19.0533 8.3569L22.8932 7.12075Z" fill="#263238"/>
<path d="M54.5304 19.6199L51.3459 22.0945L51.5806 26.1197L48.2424 23.8569L44.4869 25.3238L45.6077 21.4495L43.0527 18.3321L47.082 18.2007L49.2593 14.8051L50.628 18.5973L54.5304 19.6199Z" fill="#263238"/>
<path d="M13.2588 35.2186L14.7009 38.9839L18.6211 39.9308L15.4854 42.4651L15.7971 46.4851L12.4163 44.2866L8.69124 45.8269L9.73571 41.9319L7.12109 38.8628L11.1475 38.6545L13.2588 35.2186Z" fill="#263238"/>
</svg>
