<svg width="390" height="49" viewBox="0 0 390 49" fill="none" xmlns="http://www.w3.org/2000/svg">
<path d="M109.651 20.6731C109.548 20.6737 109.445 20.654 109.35 20.6151C109.255 20.5762 109.168 20.5189 109.095 20.4465L97.9085 9.27142L86.7222 20.4465C86.5724 20.5745 86.3798 20.6414 86.1828 20.6338C85.9858 20.6262 85.7989 20.5447 85.6595 20.4055C85.52 20.2663 85.4384 20.0798 85.4308 19.8831C85.4231 19.6864 85.4902 19.4941 85.6184 19.3446L97.3605 7.62251C97.5072 7.47696 97.7056 7.39526 97.9124 7.39526C98.1192 7.39526 98.3176 7.47696 98.4643 7.62251L110.206 19.3446C110.314 19.4543 110.387 19.5933 110.416 19.7442C110.445 19.895 110.429 20.0511 110.37 20.1928C110.31 20.3346 110.211 20.4557 110.083 20.5412C109.955 20.6266 109.804 20.6725 109.651 20.6731Z" fill="#263238"/>
<path d="M97.9083 11.9128L88.5146 21.3218V30.8323C88.5146 31.2468 88.6796 31.6444 88.9732 31.9375C89.2668 32.2306 89.665 32.3953 90.0803 32.3953H95.5599V24.5805H100.257V32.3953H105.736C106.152 32.3953 106.55 32.2306 106.843 31.9375C107.137 31.6444 107.302 31.2468 107.302 30.8323V21.2671L97.9083 11.9128Z" fill="#263238"/>
<path d="M72.2832 45.8665L70.5645 40.2659H70.5205C70.527 40.3993 70.5368 40.6012 70.5498 40.8713C70.5661 41.1383 70.5807 41.4231 70.5938 41.7258C70.6068 42.0286 70.6133 42.302 70.6133 42.5461V45.8665H69.2607V38.7278H71.3213L73.0107 44.1868H73.04L74.832 38.7278H76.8926V45.8665H75.4814V42.4875C75.4814 42.2629 75.4847 42.0042 75.4912 41.7112C75.501 41.4182 75.5124 41.1399 75.5254 40.8762C75.5384 40.6093 75.5482 40.4091 75.5547 40.2756H75.5107L73.6699 45.8665H72.2832ZM85.0645 45.8665L84.5469 44.1672H81.9443L81.4268 45.8665H79.7959L82.3154 38.6985H84.166L86.6953 45.8665H85.0645ZM84.1855 42.8977L83.668 41.2375C83.6354 41.1269 83.5915 40.9853 83.5361 40.8127C83.484 40.637 83.4303 40.4596 83.375 40.2805C83.3229 40.0982 83.2806 39.9403 83.248 39.8069C83.2155 39.9403 83.1699 40.1064 83.1113 40.3049C83.056 40.5002 83.0023 40.6858 82.9502 40.8616C82.8981 41.0374 82.8607 41.1627 82.8379 41.2375L82.3252 42.8977H84.1855ZM92.3525 45.8665H90.8389V39.9875H88.9004V38.7278H94.291V39.9875H92.3525V45.8665ZM100.422 39.885C100.132 39.885 99.875 39.942 99.6504 40.0559C99.429 40.1666 99.2419 40.3277 99.0889 40.5393C98.9391 40.7509 98.8252 41.0064 98.7471 41.3059C98.6689 41.6054 98.6299 41.9423 98.6299 42.3167C98.6299 42.8212 98.6917 43.2525 98.8154 43.6106C98.9424 43.9654 99.1377 44.2372 99.4014 44.426C99.665 44.6116 100.005 44.7043 100.422 44.7043C100.712 44.7043 101.001 44.6718 101.291 44.6067C101.584 44.5416 101.901 44.4488 102.243 44.3284V45.5979C101.927 45.7281 101.617 45.8209 101.311 45.8762C101.005 45.9348 100.661 45.9641 100.28 45.9641C99.5446 45.9641 98.9391 45.8127 98.4639 45.51C97.9919 45.204 97.6419 44.7776 97.4141 44.2307C97.1862 43.6806 97.0723 43.0393 97.0723 42.3069C97.0723 41.7665 97.1455 41.2717 97.292 40.8225C97.4385 40.3733 97.6533 39.9843 97.9365 39.6555C98.2197 39.3267 98.5697 39.0728 98.9863 38.8938C99.403 38.7148 99.8815 38.6252 100.422 38.6252C100.777 38.6252 101.132 38.6708 101.486 38.762C101.844 38.8499 102.186 38.9719 102.512 39.1282L102.023 40.3586C101.757 40.2317 101.488 40.121 101.218 40.0266C100.948 39.9322 100.682 39.885 100.422 39.885ZM111.616 45.8665H110.107V42.7854H107.28V45.8665H105.767V38.7278H107.28V41.5256H110.107V38.7278H111.616V45.8665ZM119.534 45.8665H115.423V38.7278H119.534V39.968H116.937V41.5354H119.354V42.7756H116.937V44.6165H119.534V45.8665ZM127.242 43.884C127.242 44.3072 127.14 44.675 126.935 44.9875C126.729 45.3 126.43 45.5409 126.036 45.7102C125.646 45.8795 125.17 45.9641 124.61 45.9641C124.363 45.9641 124.12 45.9478 123.883 45.9153C123.648 45.8827 123.422 45.8355 123.204 45.7737C122.989 45.7086 122.784 45.6288 122.589 45.5344V44.1282C122.927 44.2779 123.279 44.413 123.644 44.5334C124.008 44.6539 124.369 44.7141 124.728 44.7141C124.975 44.7141 125.174 44.6816 125.323 44.6165C125.476 44.5514 125.587 44.4618 125.655 44.3479C125.724 44.234 125.758 44.1038 125.758 43.9573C125.758 43.7782 125.698 43.6252 125.577 43.4983C125.457 43.3713 125.291 43.2525 125.079 43.1418C124.871 43.0312 124.635 42.9124 124.371 42.7854C124.205 42.7073 124.024 42.6129 123.829 42.5022C123.634 42.3883 123.448 42.2499 123.272 42.0872C123.097 41.9244 122.952 41.7275 122.838 41.4963C122.727 41.262 122.672 40.982 122.672 40.6565C122.672 40.2301 122.77 39.8655 122.965 39.5627C123.16 39.26 123.438 39.0289 123.8 38.8694C124.164 38.7066 124.594 38.6252 125.089 38.6252C125.46 38.6252 125.813 38.6692 126.148 38.7571C126.487 38.8417 126.84 38.9654 127.208 39.1282L126.72 40.3049C126.391 40.1715 126.096 40.0689 125.836 39.9973C125.576 39.9224 125.31 39.885 125.04 39.885C124.851 39.885 124.69 39.9159 124.557 39.9778C124.423 40.0364 124.322 40.121 124.254 40.2317C124.186 40.3391 124.151 40.4644 124.151 40.6077C124.151 40.7769 124.2 40.9202 124.298 41.0374C124.399 41.1513 124.549 41.262 124.747 41.3694C124.949 41.4768 125.2 41.6021 125.499 41.7454C125.864 41.9179 126.174 42.0986 126.432 42.2874C126.692 42.4729 126.892 42.6926 127.032 42.9465C127.172 43.1972 127.242 43.5097 127.242 43.884Z" fill="#263238"/>
<path fill-rule="evenodd" clip-rule="evenodd" d="M287.756 26.1963C292.034 25.5713 294.979 25.625 299.263 26.2181C299.573 26.2631 299.857 26.4188 300.061 26.6565C300.266 26.8942 300.377 27.1978 300.375 27.5113C300.375 27.8113 300.272 28.1025 300.086 28.33C299.761 28.7267 299.428 29.1167 299.088 29.5H300.739C300.843 29.3763 300.947 29.25 301.052 29.1219C301.423 28.6673 301.625 28.0985 301.625 27.5119C301.625 26.2463 300.701 25.1556 299.434 24.9806C295.049 24.3738 291.984 24.3156 287.575 24.96C286.295 25.1469 285.375 26.2544 285.375 27.5288C285.375 28.0944 285.559 28.6538 285.909 29.1069C286.012 29.2406 286.114 29.3719 286.215 29.5006H287.826C287.509 29.1216 287.2 28.7361 286.899 28.3444C286.721 28.1099 286.624 27.823 286.625 27.5281C286.625 26.855 287.109 26.2906 287.756 26.1963Z" fill="#455A64"/>
<path fill-rule="evenodd" clip-rule="evenodd" d="M293.5 20.125C293.992 20.125 294.48 20.028 294.935 19.8395C295.39 19.6511 295.803 19.3749 296.152 19.0267C296.5 18.6784 296.776 18.265 296.965 17.8101C297.153 17.3551 297.25 16.8675 297.25 16.375C297.25 15.8825 297.153 15.3949 296.965 14.9399C296.776 14.485 296.5 14.0716 296.152 13.7233C295.803 13.3751 295.39 13.0989 294.935 12.9105C294.48 12.722 293.992 12.625 293.5 12.625C292.505 12.625 291.552 13.0201 290.848 13.7233C290.145 14.4266 289.75 15.3804 289.75 16.375C289.75 17.3696 290.145 18.3234 290.848 19.0267C291.552 19.7299 292.505 20.125 293.5 20.125ZM293.5 21.375C294.826 21.375 296.098 20.8482 297.036 19.9105C297.973 18.9729 298.5 17.7011 298.5 16.375C298.5 15.0489 297.973 13.7771 297.036 12.8395C296.098 11.9018 294.826 11.375 293.5 11.375C292.174 11.375 290.902 11.9018 289.964 12.8395C289.027 13.7771 288.5 15.0489 288.5 16.375C288.5 17.7011 289.027 18.9729 289.964 19.9105C290.902 20.8482 292.174 21.375 293.5 21.375Z" fill="#455A64"/>
<path fill-rule="evenodd" clip-rule="evenodd" d="M293.5 30.75C299.713 30.75 304.75 25.7131 304.75 19.5C304.75 13.2869 299.713 8.25 293.5 8.25C287.287 8.25 282.25 13.2869 282.25 19.5C282.25 25.7131 287.287 30.75 293.5 30.75ZM293.5 32C300.404 32 306 26.4037 306 19.5C306 12.5963 300.404 7 293.5 7C286.596 7 281 12.5963 281 19.5C281 26.4037 286.596 32 293.5 32Z" fill="#455A64"/>
<path d="M271.936 38.7278C272.785 38.7278 273.422 38.8905 273.845 39.2161C274.268 39.5416 274.479 40.0478 274.479 40.7346C274.479 41.0862 274.423 41.3987 274.309 41.6721C274.198 41.9423 274.03 42.1702 273.806 42.3557C273.581 42.5413 273.299 42.6812 272.961 42.7756C272.626 42.87 272.233 42.9172 271.784 42.9172H270.686V45.8665H270.183V38.7278H271.936ZM271.882 39.1721H270.686V42.4729H271.735C272.198 42.4729 272.595 42.4208 272.927 42.3167C273.259 42.2092 273.514 42.0302 273.693 41.7795C273.872 41.5289 273.962 41.1871 273.962 40.7542C273.962 40.204 273.793 39.8036 273.454 39.553C273.116 39.2991 272.591 39.1721 271.882 39.1721ZM279.766 38.7278C280.332 38.7278 280.804 38.7896 281.182 38.9133C281.562 39.037 281.849 39.2405 282.041 39.5237C282.233 39.8069 282.329 40.1894 282.329 40.6711C282.329 41.0325 282.262 41.3433 282.129 41.6038C281.999 41.8609 281.818 42.0725 281.587 42.2385C281.356 42.4045 281.089 42.5315 280.786 42.6194L282.744 45.8665H282.148L280.308 42.761H278.535V45.8665H278.032V38.7278H279.766ZM279.717 39.1721H278.535V42.3167H279.956C280.539 42.3167 280.993 42.1767 281.318 41.8967C281.647 41.6168 281.812 41.2148 281.812 40.6907C281.812 40.1145 281.639 39.7174 281.294 39.4993C280.949 39.2812 280.423 39.1721 279.717 39.1721ZM291.985 42.2874C291.985 42.831 291.919 43.3274 291.785 43.7766C291.652 44.2258 291.451 44.6132 291.185 44.9387C290.918 45.2642 290.584 45.5165 290.184 45.6956C289.786 45.8746 289.323 45.9641 288.792 45.9641C288.258 45.9641 287.791 45.8746 287.391 45.6956C286.99 45.5165 286.657 45.2642 286.39 44.9387C286.126 44.6099 285.927 44.2209 285.794 43.7717C285.66 43.3193 285.594 42.8212 285.594 42.2776C285.594 41.5549 285.716 40.9185 285.96 40.3684C286.207 39.8183 286.57 39.3886 287.049 39.0793C287.531 38.7701 288.125 38.6155 288.831 38.6155C289.508 38.6155 290.081 38.7636 290.55 39.0598C291.022 39.3528 291.378 39.7743 291.619 40.3245C291.863 40.8713 291.985 41.5256 291.985 42.2874ZM286.121 42.2825C286.121 42.9205 286.217 43.4836 286.409 43.9719C286.601 44.4569 286.896 44.8362 287.293 45.1096C287.69 45.3831 288.191 45.5198 288.797 45.5198C289.409 45.5198 289.912 45.3847 290.306 45.1145C290.7 44.8443 290.991 44.4667 291.18 43.9817C291.368 43.4967 291.463 42.9319 291.463 42.2874C291.463 41.2685 291.24 40.4775 290.794 39.9143C290.351 39.3512 289.697 39.0696 288.831 39.0696C288.222 39.0696 287.716 39.2047 287.312 39.4749C286.912 39.745 286.613 40.121 286.414 40.6028C286.219 41.0846 286.121 41.6444 286.121 42.2825ZM296.129 45.8665H295.626V38.7278H299.532V39.1819H296.129V42.2239H299.347V42.6731H296.129V45.8665ZM302.655 45.8665V38.7278H303.158V45.8665H302.655ZM307.175 45.8665V38.7278H307.678V45.4075H311.076V45.8665H307.175ZM318.203 45.8665H314.302V38.7278H318.203V39.1819H314.805V41.887H318.013V42.3411H314.805V45.4124H318.203V45.8665Z" fill="#455A64"/>
</svg>
