<svg width="390" height="49" viewBox="0 0 390 49" fill="none" xmlns="http://www.w3.org/2000/svg">
<path d="M110.249 19.334L98.4869 7.61554C98.34 7.47004 98.1413 7.38837 97.9341 7.38837C97.7269 7.38837 97.5282 7.47004 97.3813 7.61554L85.6187 19.334C85.4903 19.4835 85.4231 19.6757 85.4308 19.8723C85.4384 20.069 85.5202 20.2555 85.6599 20.3946C85.7995 20.5337 85.9867 20.6152 86.1841 20.6228C86.3814 20.6304 86.5744 20.5636 86.7244 20.4356L97.9302 9.27176L109.136 20.4434C109.286 20.5714 109.479 20.6382 109.676 20.6307C109.874 20.6231 110.061 20.5415 110.2 20.4024C110.34 20.2633 110.422 20.0768 110.43 19.8802C110.437 19.6835 110.37 19.4913 110.242 19.3418L110.249 19.334Z" fill="#263238"/>
<path d="M105.772 30.8259H101.851V23.0136H94.0092V30.8259H90.0884V19.8886L88.52 21.4511V30.8259C88.52 31.2403 88.6853 31.6377 88.9794 31.9307C89.2735 32.2237 89.6724 32.3884 90.0884 32.3884H95.5775V24.576H100.283V32.3884H105.772C106.188 32.3884 106.587 32.2237 106.881 31.9307C107.175 31.6377 107.34 31.2403 107.34 30.8259V21.2636L105.772 19.7011V30.8259Z" fill="#263238"/>
<path d="M74.458 45.8665L71.8359 39.2747H71.8115C71.818 39.3951 71.8229 39.5221 71.8262 39.6555C71.8327 39.7857 71.8376 39.9224 71.8408 40.0657C71.8441 40.2089 71.8457 40.3586 71.8457 40.5149V45.8665H71.3672V38.7278H72.1289L74.6582 45.0852H74.6875L77.2363 38.7278H77.9785V45.8665H77.4854V40.4563C77.4854 40.3293 77.487 40.1991 77.4902 40.0657C77.4935 39.9322 77.4967 39.8004 77.5 39.6702C77.5065 39.5367 77.513 39.4081 77.5195 39.2844H77.4902L74.8584 45.8665H74.458ZM86.4678 45.8665L85.4961 43.342H82.498L81.5068 45.8665H80.9941L83.8018 38.7034H84.2607L86.9951 45.8665H86.4678ZM85.335 42.8879L84.3486 40.2122C84.3226 40.1438 84.29 40.0559 84.251 39.9485C84.2152 39.8411 84.1761 39.7271 84.1338 39.6067C84.0947 39.4862 84.0557 39.3723 84.0166 39.2649C83.984 39.3788 83.9482 39.4928 83.9092 39.6067C83.8701 39.7206 83.8327 39.8313 83.7969 39.9387C83.7611 40.0429 83.7269 40.1373 83.6943 40.2219L82.6689 42.8879H85.335ZM91.8711 45.8665H91.3633V39.1819H89.0488V38.7278H94.1855V39.1819H91.8711V45.8665ZM100.282 39.0793C99.8265 39.0793 99.4196 39.1575 99.0615 39.3137C98.7035 39.4667 98.4007 39.6848 98.1533 39.968C97.9059 40.2512 97.7171 40.5898 97.5869 40.9836C97.4567 41.3743 97.3916 41.8056 97.3916 42.2776C97.3916 42.9286 97.4941 43.4983 97.6992 43.9866C97.9043 44.4716 98.2119 44.8476 98.6221 45.1145C99.0355 45.3814 99.5498 45.5149 100.165 45.5149C100.523 45.5149 100.849 45.4889 101.142 45.4368C101.435 45.3814 101.706 45.3114 101.957 45.2268V45.6663C101.719 45.7542 101.451 45.8258 101.151 45.8811C100.855 45.9364 100.51 45.9641 100.116 45.9641C99.4033 45.9641 98.8044 45.8111 98.3193 45.5051C97.8376 45.1991 97.4746 44.7694 97.2305 44.2161C96.9863 43.6627 96.8643 43.0165 96.8643 42.2776C96.8643 41.747 96.9408 41.2603 97.0938 40.8176C97.2467 40.3717 97.4697 39.9859 97.7627 39.6604C98.0589 39.3316 98.4186 39.0777 98.8418 38.8987C99.265 38.7164 99.7467 38.6252 100.287 38.6252C100.629 38.6252 100.954 38.6594 101.264 38.7278C101.576 38.7929 101.869 38.8889 102.143 39.0159L101.947 39.4553C101.684 39.3251 101.413 39.2307 101.137 39.1721C100.86 39.1103 100.575 39.0793 100.282 39.0793ZM110.637 45.8665H110.134V42.3508H105.964V45.8665H105.461V38.7278H105.964V41.8918H110.134V38.7278H110.637V45.8665ZM118.56 45.8665H114.658V38.7278H118.56V39.1819H115.161V41.887H118.369V42.3411H115.161V45.4124H118.56V45.8665ZM126.116 44.0256C126.116 44.4521 126.009 44.8101 125.794 45.0999C125.579 45.3863 125.288 45.6028 124.92 45.7493C124.552 45.8925 124.135 45.9641 123.67 45.9641C123.38 45.9641 123.117 45.9495 122.879 45.9202C122.645 45.8941 122.431 45.8583 122.239 45.8127C122.05 45.7672 121.878 45.7151 121.722 45.6565V45.1536C121.976 45.2512 122.269 45.3375 122.601 45.4124C122.936 45.484 123.3 45.5198 123.694 45.5198C124.065 45.5198 124.394 45.4661 124.681 45.3586C124.97 45.2512 125.198 45.0885 125.364 44.8704C125.53 44.6523 125.613 44.3772 125.613 44.0452C125.613 43.7522 125.543 43.5129 125.403 43.3274C125.267 43.1386 125.06 42.9775 124.783 42.844C124.507 42.7073 124.158 42.5689 123.738 42.429C123.445 42.328 123.178 42.2222 122.938 42.1116C122.7 41.9976 122.496 41.8674 122.327 41.7209C122.158 41.5712 122.028 41.3922 121.937 41.1838C121.849 40.9722 121.805 40.7232 121.805 40.4368C121.805 40.0429 121.904 39.7125 122.103 39.4456C122.304 39.1754 122.576 38.9719 122.918 38.8352C123.263 38.6952 123.65 38.6252 124.08 38.6252C124.422 38.6252 124.746 38.6578 125.052 38.7229C125.361 38.7847 125.659 38.8792 125.945 39.0061L125.77 39.4407C125.483 39.317 125.197 39.2258 124.91 39.1672C124.624 39.1086 124.34 39.0793 124.061 39.0793C123.725 39.0793 123.426 39.1298 123.162 39.2307C122.902 39.3284 122.695 39.4765 122.542 39.675C122.389 39.8736 122.312 40.1243 122.312 40.427C122.312 40.7395 122.382 40.9918 122.522 41.1838C122.666 41.3759 122.868 41.5354 123.128 41.6624C123.392 41.7893 123.702 41.913 124.061 42.0334C124.484 42.1767 124.848 42.328 125.154 42.4875C125.46 42.6438 125.696 42.8424 125.862 43.0833C126.032 43.3241 126.116 43.6383 126.116 44.0256Z" fill="#455A64"/>
<path fill-rule="evenodd" clip-rule="evenodd" d="M293.5 30.75C299.713 30.75 304.75 25.7131 304.75 19.5C304.75 13.2869 299.713 8.25 293.5 8.25C287.287 8.25 282.25 13.2869 282.25 19.5C282.25 25.7131 287.287 30.75 293.5 30.75ZM293.5 32C300.404 32 306 26.4037 306 19.5C306 12.5962 300.404 7 293.5 7C286.596 7 281 12.5962 281 19.5C281 26.4037 286.596 32 293.5 32Z" fill="#263238"/>
<path d="M286 26.7687C286 26.1231 286.482 25.5775 287.125 25.5062C291.947 24.9725 295.075 25.0206 299.886 25.5181C300.126 25.5433 300.354 25.638 300.542 25.7905C300.729 25.943 300.868 26.1468 300.941 26.3769C301.015 26.6071 301.019 26.8536 300.955 27.0865C300.891 27.3193 300.76 27.5284 300.579 27.6881C294.901 32.6375 291.656 32.5693 286.4 27.6931C286.144 27.4556 286 27.1181 286 26.7694V26.7687Z" fill="#263238"/>
<path fill-rule="evenodd" clip-rule="evenodd" d="M299.822 26.1393C295.049 25.6456 291.966 25.5993 287.193 26.1275C286.872 26.1631 286.625 26.4375 286.625 26.7693C286.625 26.9481 286.699 27.1174 286.825 27.2349C289.43 29.6512 291.404 30.7431 293.333 30.7499C295.269 30.7568 297.349 29.6737 300.168 27.2174C300.258 27.1377 300.322 27.0337 300.354 26.9181C300.385 26.8024 300.382 26.6801 300.346 26.566C300.309 26.4518 300.24 26.3508 300.147 26.2752C300.054 26.1996 299.941 26.1526 299.822 26.14V26.1393ZM287.056 24.885C291.929 24.3456 295.102 24.3943 299.951 24.8962C300.313 24.9339 300.655 25.0762 300.937 25.3057C301.219 25.5351 301.428 25.8417 301.538 26.188C301.648 26.5343 301.655 26.9052 301.558 27.2553C301.46 27.6054 301.263 27.9196 300.99 28.1593C298.131 30.6518 295.749 32.0093 293.329 31.9999C290.902 31.9912 288.626 30.6106 285.976 28.1512C285.786 27.9744 285.635 27.7604 285.531 27.5226C285.428 27.2847 285.375 27.0281 285.375 26.7687C285.374 26.3027 285.545 25.8528 285.855 25.5051C286.166 25.1574 286.593 24.9363 287.056 24.8843V24.885Z" fill="#263238"/>
<path d="M298.5 17C298.5 18.3261 297.973 19.5978 297.036 20.5355C296.098 21.4732 294.826 22 293.5 22C292.174 22 290.902 21.4732 289.964 20.5355C289.027 19.5978 288.5 18.3261 288.5 17C288.5 15.6739 289.027 14.4021 289.964 13.4645C290.902 12.5268 292.174 12 293.5 12C294.826 12 296.098 12.5268 297.036 13.4645C297.973 14.4021 298.5 15.6739 298.5 17Z" fill="#263238"/>
<path fill-rule="evenodd" clip-rule="evenodd" d="M293.5 20.75C294.495 20.75 295.448 20.3549 296.152 19.6516C296.855 18.9484 297.25 17.9946 297.25 17C297.25 16.0054 296.855 15.0516 296.152 14.3483C295.448 13.6451 294.495 13.25 293.5 13.25C292.505 13.25 291.552 13.6451 290.848 14.3483C290.145 15.0516 289.75 16.0054 289.75 17C289.75 17.9946 290.145 18.9484 290.848 19.6516C291.552 20.3549 292.505 20.75 293.5 20.75ZM293.5 22C294.826 22 296.098 21.4732 297.036 20.5355C297.973 19.5978 298.5 18.3261 298.5 17C298.5 15.6739 297.973 14.4021 297.036 13.4645C296.098 12.5268 294.826 12 293.5 12C292.174 12 290.902 12.5268 289.964 13.4645C289.027 14.4021 288.5 15.6739 288.5 17C288.5 18.3261 289.027 19.5978 289.964 20.5355C290.902 21.4732 292.174 22 293.5 22Z" fill="#263238"/>
<path d="M271.229 38.7278C272.151 38.7278 272.823 38.9264 273.246 39.3235C273.669 39.7174 273.881 40.261 273.881 40.9543C273.881 41.2668 273.834 41.5663 273.739 41.8528C273.645 42.136 273.49 42.3883 273.275 42.6096C273.064 42.831 272.781 43.0068 272.426 43.137C272.071 43.2639 271.633 43.3274 271.112 43.3274H270.463V45.8665H268.949V38.7278H271.229ZM271.151 39.968H270.463V42.0872H270.961C271.244 42.0872 271.49 42.0497 271.698 41.9749C271.907 41.9 272.068 41.7828 272.182 41.6233C272.296 41.4638 272.353 41.2587 272.353 41.0081C272.353 40.6565 272.255 40.3961 272.06 40.2268C271.864 40.0543 271.562 39.968 271.151 39.968ZM279.309 38.7278C279.956 38.7278 280.49 38.8059 280.91 38.9622C281.333 39.1184 281.647 39.3544 281.853 39.6702C282.058 39.9859 282.16 40.3847 282.16 40.8665C282.16 41.192 282.098 41.4768 281.975 41.7209C281.851 41.9651 281.688 42.1718 281.486 42.3411C281.285 42.5103 281.066 42.6487 280.832 42.7561L282.932 45.8665H281.252L279.548 43.1272H278.742V45.8665H277.229V38.7278H279.309ZM279.201 39.968H278.742V41.8967H279.23C279.732 41.8967 280.09 41.8137 280.305 41.6477C280.523 41.4784 280.632 41.231 280.632 40.9055C280.632 40.567 280.515 40.3261 280.28 40.1829C280.049 40.0396 279.689 39.968 279.201 39.968ZM292.31 42.2874C292.31 42.8375 292.241 43.3388 292.104 43.7913C291.968 44.2405 291.759 44.6278 291.479 44.9534C291.203 45.2789 290.851 45.5295 290.425 45.7053C289.998 45.8778 289.494 45.9641 288.911 45.9641C288.328 45.9641 287.824 45.8778 287.397 45.7053C286.971 45.5295 286.618 45.2789 286.338 44.9534C286.061 44.6278 285.854 44.2389 285.718 43.7864C285.581 43.3339 285.513 42.831 285.513 42.2776C285.513 41.5387 285.633 40.8958 285.874 40.3489C286.118 39.7987 286.493 39.3723 286.997 39.0696C287.502 38.7668 288.143 38.6155 288.921 38.6155C289.696 38.6155 290.332 38.7668 290.83 39.0696C291.331 39.3723 291.702 39.7987 291.943 40.3489C292.188 40.899 292.31 41.5452 292.31 42.2874ZM287.1 42.2874C287.1 42.7854 287.161 43.2151 287.285 43.5764C287.412 43.9345 287.609 44.2112 287.876 44.4065C288.143 44.5986 288.488 44.6946 288.911 44.6946C289.341 44.6946 289.689 44.5986 289.956 44.4065C290.223 44.2112 290.417 43.9345 290.537 43.5764C290.661 43.2151 290.723 42.7854 290.723 42.2874C290.723 41.5387 290.583 40.9495 290.303 40.5198C290.023 40.0901 289.562 39.8752 288.921 39.8752C288.494 39.8752 288.146 39.9729 287.876 40.1682C287.609 40.3603 287.412 40.637 287.285 40.9983C287.161 41.3564 287.1 41.7861 287.1 42.2874ZM297.278 45.8665H295.789V38.7278H299.881V39.968H297.278V41.8088H299.7V43.0442H297.278V45.8665ZM303.277 45.8665V38.7278H304.791V45.8665H303.277ZM308.588 45.8665V38.7278H310.102V44.6165H312.997V45.8665H308.588ZM320.354 45.8665H316.242V38.7278H320.354V39.968H317.756V41.5354H320.173V42.7756H317.756V44.6165H320.354V45.8665Z" fill="#263238"/>
</svg>
