<svg width="36" height="35" viewBox="0 0 36 35" fill="none" xmlns="http://www.w3.org/2000/svg">
<path d="M18 0C8.33594 0 0.5 7.83594 0.5 17.5C0.5 27.1641 8.33594 35 18 35C27.6641 35 35.5 27.1641 35.5 17.5C35.5 7.83594 27.6641 0 18 0ZM26.4102 13.1914C26.4219 13.375 26.4219 13.5664 26.4219 13.7539C26.4219 19.4883 22.0547 26.0938 14.0742 26.0938C11.6133 26.0938 9.33203 25.3789 7.41016 24.1484C7.76172 24.1875 8.09766 24.2031 8.45703 24.2031C10.4883 24.2031 12.3555 23.5156 13.8438 22.3516C11.9375 22.3125 10.3359 21.0625 9.78906 19.3438C10.457 19.4414 11.0586 19.4414 11.7461 19.2656C10.7646 19.0662 9.88232 18.5331 9.24928 17.757C8.61624 16.9808 8.27143 16.0094 8.27344 15.0078V14.9531C8.84766 15.2773 9.52344 15.4766 10.2305 15.5039C9.6361 15.1078 9.14866 14.5711 8.81137 13.9415C8.47408 13.3119 8.29736 12.6088 8.29688 11.8945C8.29688 11.0859 8.50781 10.3477 8.88672 9.70703C9.97618 11.0482 11.3357 12.1451 12.8768 12.9264C14.418 13.7078 16.1063 14.1561 17.832 14.2422C17.2188 11.293 19.4219 8.90625 22.0703 8.90625C23.3203 8.90625 24.4453 9.42969 25.2383 10.2734C26.2188 10.0898 27.1562 9.72266 27.9922 9.23047C27.668 10.2344 26.9883 11.082 26.0859 11.6172C26.9609 11.5234 27.8047 11.2812 28.5859 10.9414C27.9961 11.8086 27.2578 12.5781 26.4102 13.1914Z" fill="#263238"/>
</svg>
